<?xml version="1.0" encoding="utf-8"?>
<!-- Generator: Adobe Illustrator 24.0.2, SVG Export Plug-In . SVG Version: 6.00 Build 0)  -->
<svg version="1.1" xmlns="http://www.w3.org/2000/svg" xmlns:xlink="http://www.w3.org/1999/xlink" x="0px" y="0px"
	 viewBox="0 0 500 500" style="enable-background:new 0 0 500 500;" xml:space="preserve">
<style type="text/css">
	.st0{fill:#F5F5F5;}
	.st1{fill:#E0E0E0;}
	.st2{fill:#263238;}
	.st3{fill:#455A64;}
	.st4{fill:#37474F;}
	.st5{fill:#407BFF;}
	.st6{opacity:0.3;fill:#FFFFFF;enable-background:new    ;}
	.st7{opacity:0.6;fill:#FFFFFF;enable-background:new    ;}
	.st8{opacity:0.1;enable-background:new    ;}
	.st9{opacity:0.15;enable-background:new    ;}
	.st10{opacity:0.9;fill:#FFFFFF;enable-background:new    ;}
	.st11{opacity:0.75;fill:#FFFFFF;enable-background:new    ;}
	.st12{opacity:0.2;enable-background:new    ;}
	.st13{fill:#FAFAFA;}
	.st14{fill:#F0F0F0;}
	.st15{opacity:0.25;enable-background:new    ;}
	.st16{opacity:0.8;fill:#FFFFFF;enable-background:new    ;}
	.st17{opacity:0.95;fill:#FFFFFF;enable-background:new    ;}
	.st18{opacity:0.4;enable-background:new    ;}
	.st19{opacity:0.5;fill:#FFFFFF;enable-background:new    ;}
	.st20{opacity:0.3;}
	.st21{fill:#EBEBEB;}
	.st22{opacity:0.2;}
	.st23{opacity:0.1;}
	.st24{opacity:0.35;enable-background:new    ;}
	.st25{opacity:0.3;enable-background:new    ;}
	.st26{opacity:0.45;enable-background:new    ;}
	.st27{fill:#FFFFFF;}
</style>
<g id="Capa_1">
	<g id="freepik--Floor--inject-164">
		<path id="freepik--floor--inject-164" class="st0" d="M84.8,430.6c-90.9-52.5-90.9-137.5,0-190s238.2-52.5,329,0s90.9,137.5,0,190
			S175.6,483.1,84.8,430.6z"/>
	</g>
	<g id="freepik--Shadows--inject-164">
		<path id="freepik--Shadow--inject-164" class="st1" d="M417.3,282.7c-9,5.2-9,13.7,0,18.9s23.7,5.2,32.7,0s9-13.7,0-18.9
			S426.3,277.5,417.3,282.7z"/>
		<path id="freepik--shadow--inject-164" class="st1" d="M71.4,324.3c9,5.2,9,13.7,0,18.9s-23.7,5.2-32.7,0s-9-13.7,0-18.9
			S62.3,319.1,71.4,324.3z"/>
		<path id="freepik--shadow--inject-164_1_" class="st1" d="M57.3,343.6L209,431.5c0.8,0.4,1.8,0.4,2.6,0l216.8-125.4
			c0.7-0.4,0.7-1.1,0-1.5L276.6,217c-0.8-0.4-1.8-0.4-2.6,0L57.3,342.1c-0.4,0.1-0.6,0.6-0.5,1C56.8,343.4,57,343.5,57.3,343.6z"/>
		<path id="freepik--shadow--inject-164_2_" class="st1" d="M218.1,452.6L196.4,440c-0.7-0.4-0.7-1.1,0-1.5l29.9-17
			c0.8-0.4,1.8-0.4,2.6,0l21.4,12.4c0.4,0.1,0.6,0.6,0.5,1c-0.1,0.2-0.3,0.4-0.5,0.5l-29.6,17.1C219.9,453,218.9,453,218.1,452.6z"
			/>
	</g>
	<g id="freepik--Trees--inject-164">
		<g id="freepik--Tree--inject-164">
			
				<rect x="426.4" y="251" transform="matrix(0.4524 -0.8918 0.8918 0.4524 15.8621 529.9994)" class="st2" width="26.2" height="2.1"/>
			
				<rect x="426.3" y="237" transform="matrix(0.8503 -0.5264 0.5264 0.8503 -66.5212 262.0844)" class="st2" width="2.1" height="22"/>
			<path class="st2" d="M435.4,235.9v56.3c0,0.3-0.2,0.6-0.5,0.7c-0.8,0.4-1.7,0.4-2.5,0c-0.3-0.1-0.5-0.4-0.5-0.7v-56.3H435.4z"/>
			<circle class="st3" cx="451.8" cy="218.3" r="26.2"/>
			<path class="st4" d="M460,211.6c3.4-10.6,7-14.8,4.7-16.1c-12.6-7.1-28.5-2.7-35.6,9.9c-7.1,12.6-2.7,28.5,9.9,35.6
				c11,6.2,25,3.7,33-6.1C464.3,237.2,455.6,225.4,460,211.6z"/>
			<path class="st3" d="M429,225.7c0,10.2-8.2,18.4-18.4,18.4s-18.4-8.2-18.4-18.4s8.2-18.4,18.4-18.4c0,0,0,0,0,0
				C420.8,207.3,429,215.6,429,225.7z"/>
			<path class="st4" d="M410.6,207.4c-3.9,0-7.6,1.2-10.7,3.5c-0.5,11.2,9,22.2,6.4,25.9s-9.3,1.4-11.5-1.7
				c5.1,8.8,16.4,11.8,25.1,6.6c8.8-5.1,11.8-16.4,6.6-25.1C423.2,210.9,417.2,207.4,410.6,207.4L410.6,207.4z"/>
			
				<ellipse transform="matrix(0.1735 -0.9848 0.9848 0.1735 155.597 597.2101)" class="st3" cx="433.6" cy="205.9" rx="33.7" ry="33.7"/>
			<path class="st4" d="M466.4,213.6c-4.3,18.1-22.4,29.4-40.5,25.1c-18.1-4.3-29.4-22.4-25.1-40.5c1.3-5.7,4.2-11,8.2-15.3
				c2.3-2.5,2.5-2.6,0.2-0.2c-0.6,2.5-0.9,5.1-0.9,7.7c0,18.6,15.1,33.7,33.7,33.7C451.2,224.2,460.1,220.4,466.4,213.6L466.4,213.6
				z"/>
		</g>
		<g id="freepik--tree--inject-164">
			
				<rect x="48" y="280.6" transform="matrix(0.8917 -0.4526 0.4526 0.8917 -127.6269 54.0199)" class="st2" width="2.1" height="26.2"/>
			
				<rect x="50.3" y="288.6" transform="matrix(0.5264 -0.8503 0.8503 0.5264 -217.2463 189.2486)" class="st2" width="22" height="2.1"/>
			<path class="st2" d="M53.2,277.5v56.3c0,0.3,0.2,0.6,0.5,0.7c0.8,0.4,1.7,0.4,2.5,0c0.3-0.1,0.5-0.4,0.5-0.7v-56.3H53.2z"/>
			<circle class="st3" cx="36.8" cy="260" r="26.2"/>
			<path class="st4" d="M28.6,253.3c-3.4-10.6-7-14.8-4.7-16.1c12.6-7.1,28.5-2.7,35.7,9.9c7.1,12.6,2.7,28.5-9.9,35.7
				c-11,6.3-25,3.7-33.1-6.1C24.4,278.9,33,267,28.6,253.3z"/>
			<path class="st3" d="M59.6,267.4c0,10.2,8.2,18.4,18.4,18.4s18.4-8.2,18.4-18.4c0-10.2-8.2-18.4-18.4-18.4c0,0,0,0,0,0
				C67.9,249,59.6,257.2,59.6,267.4z"/>
			<path class="st4" d="M78,249c3.9,0,7.6,1.2,10.7,3.5c0.5,11.2-9,22.2-6.4,25.9s9.2,1.4,11.5-1.7c-5.1,8.8-16.4,11.7-25.1,6.6
				s-11.7-16.4-6.6-25.1C65.4,252.5,71.5,249,78,249z"/>
			<circle class="st3" cx="55" cy="247.5" r="33.7"/>
			<path class="st4" d="M22.2,255.2c4.2,18.1,22.4,29.4,40.5,25.2s29.4-22.4,25.2-40.5c-1.3-5.7-4.2-11-8.2-15.3
				c-2.3-2.5-2.5-2.6-0.2-0.2c4.3,18.1-7,36.3-25.1,40.5C42.7,267.6,30.4,264,22.2,255.2z"/>
		</g>
	</g>
	<g id="freepik--Building--inject-164">
		<g id="freepik--Store--inject-164">
			<g id="freepik--Wall--inject-164">
				<polygon class="st5" points="210.3,422.6 73.2,343.3 73.2,165 210.3,244.2 				"/>
				<polygon class="st6" points="210.3,422.6 73.2,343.3 73.2,165 210.3,244.2 				"/>
			</g>
			<g id="freepik--wall--inject-164">
				<polygon class="st5" points="210.3,422.6 415,304.4 415,125.9 210.3,244.2 				"/>
				<polygon class="st7" points="210.3,422.6 415,304.4 415,125.9 210.3,244.2 				"/>
			</g>
			<polygon id="freepik--shadow--inject-164_3_" class="st8" points="79.4,168.5 73.2,172 73.2,188.8 210.3,268 415,149.7 
				415,138.5 404.1,132.2 394.4,137.8 405.4,144.1 210.3,256.9 78.1,180.4 78.1,180.4 89,174.1 			"/>
			<g id="freepik--Roof--inject-164">
				<polyline class="st5" points="276.7,51.7 276.7,62.8 395.7,131.4 405.4,125.9 276.7,51.7 				"/>
				<polyline class="st7" points="276.7,51.7 276.7,62.8 395.7,131.4 405.4,125.9 276.7,51.7 				"/>
				<polyline class="st9" points="276.7,51.7 276.7,62.8 395.7,131.4 405.4,125.9 276.7,51.7 				"/>
				<polyline class="st5" points="210.3,249.8 62.3,164.4 62.3,175.6 210.3,260.9 210.3,249.8 				"/>
				<polyline class="st7" points="210.3,249.8 62.3,164.4 62.3,175.6 210.3,260.9 210.3,249.8 				"/>
				<path class="st5" d="M286.4,46.1l-9.6-5.6L62.3,164.4l148,85.3l214.4-123.9L286.4,46.1z M210.2,238.6L81.6,164.4l0,0L276.7,51.7
					l128.7,74.2L210.2,238.6z"/>
				<path class="st10" d="M286.4,46.1l-9.6-5.6L62.3,164.4l148,85.3l214.4-123.9L286.4,46.1z M210.2,238.6L81.6,164.4l0,0
					L276.7,51.7l128.7,74.2L210.2,238.6z"/>
				<polygon class="st5" points="424.7,125.9 424.7,137 210.3,260.9 210.3,249.8 				"/>
				<polygon class="st11" points="424.7,125.9 424.7,137 210.3,260.9 210.3,249.8 				"/>
				<polygon class="st5" points="276.7,51.7 276.7,62.8 91.3,170 81.6,164.4 				"/>
				<polygon class="st11" points="276.7,51.7 276.7,62.8 91.3,170 81.6,164.4 				"/>
				<polygon class="st5" points="276.7,62.8 395.7,131.4 210.2,238.6 91.3,170 				"/>
				<polygon class="st12" points="276.7,62.8 395.7,131.4 210.2,238.6 91.3,170 				"/>
				<polygon class="st8" points="388,135.9 266.4,68.8 276.7,51.7 405.4,125.9 				"/>
				<path class="st8" d="M142.5,146.4l-34,19.7c-1.8,1.1-1.8,2.8,0,3.9l41.4,23.8c2.1,1.1,4.6,1.1,6.7,0l34-19.7
					c1.9-1.1,1.9-2.8,0-3.9l-41.4-23.8C147.1,145.3,144.6,145.3,142.5,146.4z"/>
				<polygon class="st13" points="146,134.4 116.5,151.4 148.1,169.7 177.6,152.7 				"/>
				<polygon class="st1" points="116.5,151.4 116.5,168.5 148.1,186.8 148.1,169.7 				"/>
				<polygon class="st14" points="177.6,152.7 177.6,169.7 148.1,186.8 148.1,169.7 				"/>
				<path class="st1" d="M136.3,145.8c-5.4,3.1-5.4,8.1,0,11.2s14.1,3.1,19.4,0s5.4-8.1,0-11.2S141.6,142.7,136.3,145.8z"/>
				<path class="st13" d="M141.4,149c-2.5,1.3-2.5,3.5,0,4.8c2.9,1.3,6.2,1.3,9.1,0c2.5-1.3,2.5-3.5,0-4.8
					C147.7,147.7,144.3,147.7,141.4,149z"/>
				<path class="st5" d="M163.2,185.7c-0.8,0-1.4-0.4-1.4-0.8v-9.4l-4.1-2.4c-0.6-0.4-1-1.1-0.9-1.8c0.1-0.9,0.7-1.5,1.3-1.3
					l5.9,3.4c0.5,0.3,0.7,0.7,0.7,1.3v10.2C164.6,185.4,164,185.7,163.2,185.7z"/>
				<path class="st5" d="M171.7,180.7c-0.8,0-1.5-0.4-1.5-0.8v-9.4l-4.1-2.4c-0.6-0.4-1-1.1-0.9-1.9c0.1-0.9,0.7-1.5,1.3-1.3
					l5.9,3.4c0.4,0.3,0.7,0.7,0.7,1.3v10.2C173.2,180.3,172.5,180.7,171.7,180.7z"/>
			</g>
			<g id="freepik--Door--inject-164">
				<polygon class="st5" points="283.6,268 283.6,380.3 232.6,409.7 232.6,297.5 				"/>
				<polygon class="st15" points="283.6,268 283.6,380.3 232.6,409.7 232.6,297.5 				"/>
				<polygon class="st9" points="283.6,268 279.6,270.3 279.6,377.6 283.6,380.3 				"/>
				<polygon class="st5" points="279.6,377.6 283.6,380.3 232.6,409.7 232.6,404.7 				"/>
				<polygon class="st16" points="279.6,377.6 283.6,380.3 232.6,409.7 232.6,404.7 				"/>
				<polygon class="st5" points="279.6,377.6 232.6,404.7 232.6,297.5 279.6,270.3 				"/>
				<polygon class="st17" points="279.6,377.6 232.6,404.7 232.6,297.5 279.6,270.3 				"/>
				<polygon class="st8" points="279.6,270.3 279.6,278.2 232.6,305.3 232.6,297.5 				"/>
				<polygon class="st5" points="258.1,282.7 256.4,283.7 256.4,396 258.1,395 				"/>
				<polygon class="st12" points="258.1,282.7 256.4,283.7 256.4,396 258.1,395 				"/>
				<polygon class="st5" points="256.4,283.7 256.4,396 254.6,395 254.6,284.7 				"/>
				<polygon class="st18" points="256.4,283.7 256.4,396 254.6,395 254.6,284.7 				"/>
				<polygon class="st5" points="283.6,380.3 285.4,381.3 285.4,267 283.6,268 				"/>
				<polygon class="st12" points="283.6,380.3 285.4,381.3 285.4,267 283.6,268 				"/>
				<polygon class="st5" points="285.4,381.3 292.1,377.3 292.1,255.2 225.8,293.5 225.8,415.6 232.6,411.7 232.6,297.5 285.4,267 
									"/>
				<polygon class="st5" points="292.1,255.2 225.8,293.5 224.1,292.5 290.5,254.2 				"/>
				<polygon class="st19" points="292.1,255.2 225.8,293.5 224.1,292.5 290.5,254.2 				"/>
				<polygon class="st5" points="225.8,415.6 225.8,293.5 224.1,292.5 224.1,414.7 				"/>
				<polyline class="st12" points="224.1,292.5 224.1,414.7 225.8,415.6 225.8,293.5 				"/>
			</g>
			<g id="freepik--Closed--inject-164">
				<path class="st9" d="M261.3,313l14.6-8.4c0.9-0.5,1.6-0.1,1.6,0.9v10c-0.1,1.1-0.7,2.1-1.6,2.7l-14.6,8.4
					c-0.9,0.5-1.6,0.1-1.6-0.9v-10C259.8,314.7,260.4,313.7,261.3,313z"/>
				<path class="st3" d="M261.9,313.5l14.6-8.4c0.9-0.5,1.6-0.1,1.6,0.9v10c-0.1,1.1-0.6,2.1-1.6,2.7l-14.6,8.4
					c-0.9,0.5-1.6,0.1-1.6-0.9v-10C260.4,315.1,260.9,314.1,261.9,313.5z"/>
				<path class="st13" d="M261.8,322.3c-0.3-0.6-0.4-1.3-0.3-2c0-0.8,0.1-1.6,0.3-2.3c0.2-0.5,0.6-1,1-1.3c0.1-0.1,0.3-0.1,0.4-0.2
					c0.1,0,0.2,0.1,0.2,0.2c0,0.2,0,0.4-0.1,0.6c0,0.2-0.1,0.3-0.2,0.3c-0.1,0-0.2,0.1-0.3,0.1c-0.2,0.2-0.4,0.4-0.5,0.7
					c-0.1,0.5-0.2,0.9-0.1,1.4c0,0.4,0,0.8,0.1,1.2c0,0.2,0.2,0.3,0.4,0.2c0,0,0.1,0,0.1-0.1c0.1,0,0.1-0.1,0.2-0.1l0.2-0.2l0,0
					c0.1,0,0.1,0,0.2,0.1c0,0.2,0.1,0.3,0,0.5c0,0.1,0,0.1,0,0.2c0,0.1-0.1,0.1-0.1,0.2l-0.2,0.2c-0.1,0.1-0.2,0.1-0.3,0.2
					C262.4,322.7,262,322.7,261.8,322.3z"/>
				<path class="st13" d="M264.3,321.5c0-0.1,0-0.1,0-0.2v-5c0-0.2,0.1-0.3,0.3-0.4l0.2-0.1c0.2-0.1,0.3-0.1,0.3,0.1v4.3l0.8-0.4
					c0,0,0.1,0,0.1,0c0,0,0,0,0,0c0,0.1,0,0.2,0,0.3v0.3c0,0.1,0,0.2,0,0.3c0,0.1-0.1,0.1-0.1,0.2l-1.4,0.8
					C264.3,321.6,264.3,321.6,264.3,321.5z"/>
				<path class="st13" d="M266.2,317.7c0-1.9,0.5-3.1,1.3-3.6c0.4-0.3,0.8-0.2,1,0.1c0.3,0.6,0.4,1.3,0.3,1.9c0,0.8-0.1,1.6-0.3,2.3
					c-0.2,0.5-0.5,1-1,1.3C266.7,320.3,266.2,319.6,266.2,317.7z M267.9,318.4c0.1-0.2,0.1-0.4,0.2-0.6c0-0.4,0.1-0.7,0.1-1.1
					c0-0.4,0-0.7-0.1-1c0-0.2-0.1-0.3-0.2-0.5c-0.1-0.1-0.2-0.1-0.3,0c-0.1,0.1-0.2,0.2-0.3,0.3c-0.1,0.2-0.1,0.4-0.2,0.6
					c0,0.4-0.1,0.7-0.1,1.1c0,0.3,0,0.7,0.1,1c0,0.2,0.1,0.3,0.2,0.5c0.1,0.1,0.2,0.1,0.3,0C267.7,318.6,267.8,318.5,267.9,318.4
					L267.9,318.4z"/>
				<path class="st13" d="M269.8,318.4c-0.1,0-0.3,0-0.4-0.1c0-0.1-0.1-0.2-0.1-0.2c0-0.2,0-0.3,0.1-0.5c0-0.2,0.1-0.3,0.2-0.3
					c0,0,0.1,0,0.1,0h0.1c0.1,0,0.3,0,0.4,0c0.1-0.1,0.2-0.2,0.3-0.3c0.1-0.1,0.1-0.3,0.1-0.5c0-0.1,0-0.2-0.1-0.3
					c0-0.1-0.1-0.1-0.1-0.2l-0.3-0.1c-0.2,0-0.4-0.2-0.6-0.4c-0.1-0.3-0.2-0.6-0.2-0.9c0-0.4,0.1-0.9,0.3-1.3
					c0.2-0.4,0.4-0.7,0.8-0.9c0.1-0.1,0.2-0.1,0.4-0.1c0.1,0,0.2,0,0.3,0c0.1,0,0.1,0.1,0.1,0.2c0,0.2,0,0.3-0.1,0.5
					c0,0.2-0.1,0.3-0.1,0.3c0,0-0.1,0-0.1,0c-0.3,0-0.5,0.1-0.6,0.4c-0.1,0.1-0.1,0.2-0.1,0.4c0,0.1,0,0.3,0.1,0.4
					c0.1,0.1,0.2,0.1,0.3,0.2h0.1c0.2,0.1,0.4,0.2,0.5,0.4c0.1,0.3,0.2,0.6,0.1,0.9c0,0.3,0,0.6-0.1,0.9c-0.1,0.3-0.2,0.6-0.4,0.8
					c-0.2,0.2-0.4,0.4-0.6,0.6C270.2,318.2,270,318.3,269.8,318.4z"/>
				<path class="st13" d="M272,317.1c0-0.1-0.1-0.1,0-0.2V312c0-0.1,0-0.2,0-0.3c0-0.1,0.1-0.1,0.1-0.2l1.5-0.9c0,0,0.1,0,0.1,0
					c0,0.1,0,0.2,0,0.3v0.3c0,0.1,0,0.2,0,0.3c0,0.1-0.1,0.1-0.1,0.2l-0.9,0.5v1.1l0.8-0.5c0,0,0.1,0,0.1,0c0,0.1,0,0.2,0,0.3v0.3
					c0,0.1,0,0.2,0,0.3c0,0.1-0.1,0.1-0.1,0.2l-0.8,0.5v1.3l0.9-0.5c0,0,0.1,0,0.1,0c0,0,0,0,0,0c0,0.1,0,0.2,0,0.3v0.3
					c0,0.1,0,0.2,0,0.3c0,0.1,0,0.1-0.1,0.2l-1.5,0.9C272.1,317.1,272,317.1,272,317.1z"/>
				<path class="st13" d="M274.4,315.7c0-0.1,0-0.1,0-0.2v-4.9c0-0.1,0-0.2,0-0.3c0-0.1,0.1-0.1,0.1-0.2l1-0.6
					c0.4-0.3,0.8-0.2,1,0.1c0.3,0.6,0.4,1.2,0.3,1.9c0,0.8-0.1,1.5-0.3,2.3c-0.2,0.5-0.5,1-1,1.3l-1,0.6
					C274.5,315.7,274.4,315.7,274.4,315.7z M275.5,314.1c0.2-0.1,0.3-0.4,0.4-0.6c0.1-0.5,0.1-0.9,0.1-1.4c0-0.4,0-0.8-0.1-1.3
					c-0.1-0.2-0.2-0.3-0.4-0.2l-0.3,0.2v3.5L275.5,314.1z"/>
				<path class="st2" d="M266.2,312L266.2,312c-0.1,0-0.2-0.1-0.1-0.2l3-12.9c0-0.1,0.1-0.1,0.2-0.1l0,0c0.1,0,0.2,0.1,0.2,0.1
					l3,9.5c0,0.1,0,0.2-0.1,0.2c0,0,0,0,0,0c-0.1,0-0.2,0-0.2-0.1c0,0,0,0,0,0l-2.8-8.9l-2.8,12.3C266.4,312,266.3,312,266.2,312
					C266.2,312,266.2,312,266.2,312z"/>
			</g>
			<polygon class="st3" points="224.7,209 228.4,206.8 228.4,228 224.7,230.2 			"/>
			<polygon class="st3" points="373.5,123 377.2,120.8 377.2,142.1 373.5,144.3 			"/>
			<g id="freepik--Sign--inject-164">
				<path class="st14" d="M211.3,165.5l162.6-94c0.8-0.6,1.8-0.7,2.7-0.3L383,75c0.8,0.6,1.2,1.5,1.1,2.4v46
					c-0.1,2.7-1.6,5.1-3.8,6.6l-162.6,94c-0.8,0.6-1.8,0.7-2.7,0.3l-6.4-3.7c-0.8-0.6-1.2-1.5-1.1-2.5v-46
					C207.6,169.5,209.1,167,211.3,165.5z"/>
				<path class="st1" d="M217.7,224.1c-0.8,0.6-1.8,0.7-2.7,0.3l-6.4-3.7c-0.8-0.6-1.2-1.5-1.1-2.5v-46c0-1.3,0.4-2.6,1.1-3.8
					l6.4,3.7l41.9,29.3L217.7,224.1z"/>
				<path class="st13" d="M380.3,75.2l-162.6,94c-2.3,1.5-3.7,3.9-3.8,6.6v46c0,2.4,1.7,3.4,3.8,2.2l162.6-94
					c2.3-1.5,3.7-3.9,3.8-6.6v-46C384.1,75,382.4,74,380.3,75.2z"/>
			</g>
			<g id="freepik--Text--inject-164">
				<path class="st5" d="M225.7,191.7c-1.4,0.8-2.4-0.1-2.4-2.3c-0.1-2,0.8-3.8,2.4-5c1.4-0.8,2.4,0.1,2.4,2.3
					C228.2,188.6,227.3,190.5,225.7,191.7z"/>
				<path class="st5" d="M242.3,166.7c0.3-1,0.8-1.9,1.3-2.8l0.6-0.4v7l-0.9,0.6c0,0-1.1-5.8-4.3-4c-1.9,1.1-3.8,5.1-3.8,14.7
					s1.9,11.4,4.4,9.9c2.3-1.3,4.4-5.9,4.4-9.5l0.6-0.4c0,4.2-2.4,9.3-5.5,11.1c-5,2.9-8.1-0.1-8.1-8.7s3.1-15.2,7.5-17.8
					C239.7,165.7,241.2,165.8,242.3,166.7z"/>
				<path class="st5" d="M259,171.7c0,6.1-2.4,11.1-6.3,13.4s-6.3,0-6.3-6.1s2.4-11.1,6.3-13.4S259,165.7,259,171.7z M254.9,174.1
					c0-7.2-1.2-8.3-2.3-7.7s-2.3,3.1-2.3,10.3s1.2,8.3,2.3,7.7S254.9,181.2,254.9,174.1L254.9,174.1z"/>
				<path class="st5" d="M260.8,163.2v-0.9l1.7-1v-1.8c0-3.9,1.9-7.9,5-9.7c2.6-1.5,3.9-0.3,3.9,1.8c0.1,1.5-0.6,2.9-1.8,3.8
					c-0.3,0.2-0.6,0.3-1,0.4V150c-0.3,0-0.5,0.1-0.7,0.2c-1,0.6-1.7,2.1-1.7,7v1.8l3.8-2.2v0.9l-3.8,2.2v15.6l1.4-0.3v0.6l-6.7,3.9
					v-0.6l1.4-1.4v-15.6L260.8,163.2z"/>
				<path class="st5" d="M271.1,157.2v-0.9l1.7-1v-1.8c0-3.9,1.9-7.9,5-9.7c2.6-1.5,3.9-0.3,3.9,1.8c0.1,1.5-0.6,2.9-1.8,3.8
					c-0.3,0.2-0.6,0.3-1,0.4V144c-0.3,0-0.5,0.1-0.7,0.2c-1,0.6-1.7,2.1-1.7,7v1.8l3.8-2.2v0.9l-3.8,2.2v15.6l1.4-0.3v0.6l-6.7,3.9
					v-0.6l1.4-1.4v-15.6L271.1,157.2z"/>
				<path class="st5" d="M281.4,158.8c0-6.1,2.4-11.1,5.9-13.1s5.7,0,5.7,4c0,0.8-0.1,1.6-0.2,2.3c-2.3,2-4.7,3.8-7.3,5.3
					c0,6.1,1.2,7.2,2.9,6.2c1.9-1.1,3.5-4.4,3.5-6.8l0.6-0.4c0,2.9-1.8,6.7-4.5,8.3C283.8,167.1,281.4,164.9,281.4,158.8z
					 M288.8,154.1c0.2-1,0.2-1.9,0.2-2.9c0-4.4-1-5.3-1.8-4.8s-1.8,2.5-1.8,10C286.6,155.8,287.8,155,288.8,154.1z"/>
				<path class="st5" d="M295,150.9c0-6.1,2.4-11.1,5.8-13.1s5.7,0,5.7,4c0,0.8-0.1,1.6-0.2,2.3c-2.3,2-4.7,3.8-7.3,5.3
					c0,6.1,1.2,7.2,2.9,6.2c1.9-1.1,3.5-4.4,3.5-6.8l0.6-0.4c0,2.9-1.8,6.7-4.5,8.3C297.4,159.3,295,157,295,150.9z M302.4,146.3
					c0.2-1,0.2-1.9,0.2-2.9c0-4.4-1-5.3-1.8-4.8s-1.8,2.5-1.8,10C300.2,147.9,301.3,147.2,302.4,146.3z"/>
				<path class="st5" d="M317.2,142.4c0-5.7-8.5-1.2-8.5-10c0.1-4.1,2.3-7.8,5.9-9.8c1.2-0.8,2.7-0.7,3.8,0.2c0.3-1,0.7-1.9,1.3-2.8
					l0.6-0.3v7l-1,0.6c0,0-1.1-5.8-4.3-4c-1.2,0.7-2.3,3-2.3,5.3c0,6.2,8.5,1.7,8.5,9.8c-0.1,4.5-2.6,8.7-6.6,10.9
					c-2.7,1.6-4.3,0.1-4.3,0.1c-0.3,1-0.7,1.9-1.3,2.8l-0.6,0.3v-7l1-0.6c0,0,1.1,5.8,4.8,3.7C316,147.6,317.2,145.1,317.2,142.4z"
					/>
				<path class="st5" d="M332.2,125.8c0-3.3-1-4.2-1.8-3.7c-1.4,0.8-2.1,4.2-2.1,4.2v13.6l1.4-0.3v0.6l-6.7,3.9v-0.6l1.4-1.4v-23.5
					l-1.4,0.3v-0.6l3.1-1.8c1.4-0.8,2.1-0.1,2.1,2.1v5.9c0.6-1.7,1.7-3.2,3.1-4.2c2.7-1.6,4.6,0.3,4.6,3.4v11.8l1.4-0.3v0.6
					l-3.1,1.8c-1.4,0.8-2.1,0.1-2.1-2.1L332.2,125.8z"/>
				<path class="st5" d="M351.8,118.2c0,6.1-2.4,11.1-6.3,13.4s-6.3,0-6.3-6.1s2.4-11.1,6.3-13.4S351.8,112.1,351.8,118.2z
					 M347.7,120.5c0-7.2-1.2-8.3-2.3-7.7s-2.3,3.2-2.3,10.3s1.2,8.3,2.3,7.7S347.7,127.7,347.7,120.5z"/>
				<path class="st5" d="M355.1,108.2l-1.4,0.3v-0.6l2.1-1.2c0.7-0.6,1.8-0.5,2.4,0.3c0.2,0.3,0.3,0.6,0.4,0.9c0,0,1-3.9,3.5-5.3
					c2.7-1.6,4.9,0.5,4.9,6.9s-2.1,11-5.3,12.8c-0.8,0.6-1.9,0.6-2.7,0.1v7.2l1.4-0.3v0.6l-6.7,3.9V133l1.4-1.4L355.1,108.2z
					 M358.9,121.2c0,0,0.8,1,1.8,0.4c1.2-0.7,2.1-2.7,2.1-9.9c0-7-1-7.9-1.8-7.4c-1.4,0.8-2.1,4.2-2.1,4.2L358.9,121.2z"/>
				<path class="st5" d="M372,107.2c-1.4,0.8-2.4-0.1-2.4-2.3s1-4.2,2.4-5.1s2.4,0.1,2.4,2.3C374.5,104.1,373.6,106,372,107.2z"/>
				<g class="st20">
					<path d="M225.7,191.7c-1.4,0.8-2.4-0.1-2.4-2.3c-0.1-2,0.8-3.8,2.4-5c1.4-0.8,2.4,0.1,2.4,2.3
						C228.2,188.6,227.3,190.5,225.7,191.7z"/>
					<path d="M242.3,166.7c0.3-1,0.8-1.9,1.3-2.8l0.6-0.4v7l-0.9,0.6c0,0-1.1-5.8-4.3-4c-1.9,1.1-3.8,5.1-3.8,14.7s1.9,11.4,4.4,9.9
						c2.3-1.3,4.4-5.9,4.4-9.5l0.6-0.4c0,4.2-2.4,9.3-5.5,11.1c-5,2.9-8.1-0.1-8.1-8.7s3.1-15.2,7.5-17.8
						C239.7,165.7,241.2,165.8,242.3,166.7z"/>
					<path d="M259,171.7c0,6.1-2.4,11.1-6.3,13.4s-6.3,0-6.3-6.1s2.4-11.1,6.3-13.4S259,165.7,259,171.7z M254.9,174.1
						c0-7.2-1.2-8.3-2.3-7.7s-2.3,3.1-2.3,10.3s1.2,8.3,2.3,7.7S254.9,181.2,254.9,174.1L254.9,174.1z"/>
					<path d="M260.8,163.2v-0.9l1.7-1v-1.8c0-3.9,1.9-7.9,5-9.7c2.6-1.5,3.9-0.3,3.9,1.8c0.1,1.5-0.6,2.9-1.8,3.8
						c-0.3,0.2-0.6,0.3-1,0.4V150c-0.3,0-0.5,0.1-0.7,0.2c-1,0.6-1.7,2.1-1.7,7v1.8l3.8-2.2v0.9l-3.8,2.2v15.6l1.4-0.3v0.6l-6.7,3.9
						v-0.6l1.4-1.4v-15.6L260.8,163.2z"/>
					<path d="M271.1,157.2v-0.9l1.7-1v-1.8c0-3.9,1.9-7.9,5-9.7c2.6-1.5,3.9-0.3,3.9,1.8c0.1,1.5-0.6,2.9-1.8,3.8
						c-0.3,0.2-0.6,0.3-1,0.4V144c-0.3,0-0.5,0.1-0.7,0.2c-1,0.6-1.7,2.1-1.7,7v1.8l3.8-2.2v0.9l-3.8,2.2v15.6l1.4-0.3v0.6l-6.7,3.9
						v-0.6l1.4-1.4v-15.6L271.1,157.2z"/>
					<path d="M281.4,158.8c0-6.1,2.4-11.1,5.9-13.1s5.7,0,5.7,4c0,0.8-0.1,1.6-0.2,2.3c-2.3,2-4.7,3.8-7.3,5.3
						c0,6.1,1.2,7.2,2.9,6.2c1.9-1.1,3.5-4.4,3.5-6.8l0.6-0.4c0,2.9-1.8,6.7-4.5,8.3C283.8,167.1,281.4,164.9,281.4,158.8z
						 M288.8,154.1c0.2-1,0.2-1.9,0.2-2.9c0-4.4-1-5.3-1.8-4.8s-1.8,2.5-1.8,10C286.6,155.8,287.8,155,288.8,154.1z"/>
					<path d="M295,150.9c0-6.1,2.4-11.1,5.8-13.1s5.7,0,5.7,4c0,0.8-0.1,1.6-0.2,2.3c-2.3,2-4.7,3.8-7.3,5.3c0,6.1,1.2,7.2,2.9,6.2
						c1.9-1.1,3.5-4.4,3.5-6.8l0.6-0.4c0,2.9-1.8,6.7-4.5,8.3C297.4,159.3,295,157,295,150.9z M302.4,146.3c0.2-1,0.2-1.9,0.2-2.9
						c0-4.4-1-5.3-1.8-4.8s-1.8,2.5-1.8,10C300.2,147.9,301.3,147.2,302.4,146.3z"/>
					<path d="M317.2,142.4c0-5.7-8.5-1.2-8.5-10c0.1-4.1,2.3-7.8,5.9-9.8c1.2-0.8,2.7-0.7,3.8,0.2c0.3-1,0.7-1.9,1.3-2.8l0.6-0.3v7
						l-1,0.6c0,0-1.1-5.8-4.3-4c-1.2,0.7-2.3,3-2.3,5.3c0,6.2,8.5,1.7,8.5,9.8c-0.1,4.5-2.6,8.7-6.6,10.9c-2.7,1.6-4.3,0.1-4.3,0.1
						c-0.3,1-0.7,1.9-1.3,2.8l-0.6,0.3v-7l1-0.6c0,0,1.1,5.8,4.8,3.7C316,147.6,317.2,145.1,317.2,142.4z"/>
					<path d="M332.2,125.8c0-3.3-1-4.2-1.8-3.7c-1.4,0.8-2.1,4.2-2.1,4.2v13.6l1.4-0.3v0.6l-6.7,3.9v-0.6l1.4-1.4v-23.5l-1.4,0.3
						v-0.6l3.1-1.8c1.4-0.8,2.1-0.1,2.1,2.1v5.9c0.6-1.7,1.7-3.2,3.1-4.2c2.7-1.6,4.6,0.3,4.6,3.4v11.8l1.4-0.3v0.6l-3.1,1.8
						c-1.4,0.8-2.1,0.1-2.1-2.1L332.2,125.8z"/>
					<path d="M351.8,118.2c0,6.1-2.4,11.1-6.3,13.4s-6.3,0-6.3-6.1s2.4-11.1,6.3-13.4S351.8,112.1,351.8,118.2z M347.7,120.5
						c0-7.2-1.2-8.3-2.3-7.7s-2.3,3.2-2.3,10.3s1.2,8.3,2.3,7.7S347.7,127.7,347.7,120.5z"/>
					<path d="M355.1,108.2l-1.4,0.3v-0.6l2.1-1.2c0.7-0.6,1.8-0.5,2.4,0.3c0.2,0.3,0.3,0.6,0.4,0.9c0,0,1-3.9,3.5-5.3
						c2.7-1.6,4.9,0.5,4.9,6.9s-2.1,11-5.3,12.8c-0.8,0.6-1.9,0.6-2.7,0.1v7.2l1.4-0.3v0.6l-6.7,3.9V133l1.4-1.4L355.1,108.2z
						 M358.9,121.2c0,0,0.8,1,1.8,0.4c1.2-0.7,2.1-2.7,2.1-9.9c0-7-1-7.9-1.8-7.4c-1.4,0.8-2.1,4.2-2.1,4.2L358.9,121.2z"/>
					<path d="M372,107.2c-1.4,0.8-2.4-0.1-2.4-2.3s1-4.2,2.4-5.1s2.4,0.1,2.4,2.3C374.5,104.1,373.6,106,372,107.2z"/>
				</g>
				<polygon class="st3" points="349.6,133.9 349.6,136.6 223.1,209.6 223.1,206.9 				"/>
				<polygon class="st3" points="375.6,118.8 375.6,121.6 364.5,128 364.5,125.3 				"/>
			</g>
			<g id="freepik--Window--inject-164">
				<polygon class="st5" points="306.1,253 306.1,341.7 400.1,287.5 400.1,198.8 				"/>
				<polygon class="st5" points="306.1,253 306.1,341.7 400.1,287.5 400.1,198.8 				"/>
				<polygon class="st3" points="392.8,208.5 310.9,255.8 310.9,330.6 392.8,283.3 				"/>
				<polygon class="st4" points="310.9,323.9 310.9,322.4 392.8,275.1 392.8,276.6 				"/>
				<polygon class="st4" points="310.9,315.3 310.9,313.8 392.8,266.5 392.8,268 				"/>
				<polygon class="st4" points="310.9,306.7 310.9,305.2 392.8,257.9 392.8,259.4 				"/>
				<polygon class="st4" points="310.9,298 310.9,296.5 392.8,249.3 392.8,250.8 				"/>
				<polygon class="st4" points="310.9,289.4 310.9,287.9 392.8,240.6 392.8,242.1 				"/>
				<polygon class="st4" points="310.9,280.8 310.9,279.3 392.8,232 392.8,233.5 				"/>
				<polygon class="st4" points="310.9,272.2 310.9,270.7 392.8,223.4 392.8,224.9 				"/>
				<polygon class="st4" points="310.9,263.6 310.9,262.1 392.8,214.8 392.8,216.3 				"/>
				<polygon class="st5" points="395.2,284.7 392.8,283.3 392.8,208.5 395.2,207.1 				"/>
				<polygon class="st12" points="395.2,284.7 392.8,283.3 392.8,208.5 395.2,207.1 				"/>
				<polygon class="st5" points="306.1,341.7 303.7,340.3 303.7,251.6 306.1,253 				"/>
				<polygon class="st12" points="306.1,341.7 303.7,340.3 303.7,251.6 306.1,253 				"/>
				<polygon class="st5" points="395.2,284.7 392.8,283.3 310.9,330.6 310.9,333.4 				"/>
				<polygon class="st19" points="395.2,284.7 392.8,283.3 310.9,330.6 310.9,333.4 				"/>
				<polygon class="st5" points="400.1,198.8 397.7,197.4 303.7,251.6 306.1,253 				"/>
				<polygon class="st19" points="400.1,198.8 397.7,197.4 303.7,251.6 306.1,253 				"/>
			</g>
			<polygon class="st1" points="298,250.7 298,239.4 320.8,263.9 			"/>
			<path class="st21" d="M428.2,207.5c-0.2,3.4-2,6.5-4.9,8.4h0c-2.7,1.6-4.9,0.3-4.9-2.8v-5.7l9.8-5.6L428.2,207.5z"/>
			<path class="st21" d="M408.7,218.8c-0.2,3.4-2,6.5-4.9,8.4h0c-2.7,1.6-4.9,0.3-4.9-2.8v-5.7l9.8-5.6L408.7,218.8z"/>
			<path class="st21" d="M389.1,230.1c-0.2,3.4-2,6.5-4.9,8.4l0,0c-2.7,1.6-4.9,0.3-4.9-2.8V230l9.8-5.6L389.1,230.1z"/>
			<path class="st21" d="M369.6,241.3c-0.2,3.4-2,6.5-4.9,8.4h0c-2.7,1.6-4.9,0.3-4.9-2.8v-5.6l9.8-5.6L369.6,241.3z"/>
			<path class="st21" d="M350.1,252.6c-0.2,3.4-2,6.5-4.9,8.4h0c-2.7,1.5-4.9,0.3-4.9-2.8v-5.7l9.8-5.6L350.1,252.6z"/>
			<path class="st21" d="M330.5,263.9c-0.2,3.4-2,6.5-4.9,8.4h0c-2.7,1.5-4.9,0.3-4.9-2.8v-5.7l9.8-5.6L330.5,263.9z"/>
			<polygon class="st13" points="320.8,263.9 428.2,201.8 405.4,177.4 298,239.4 			"/>
			<polygon class="st5" points="330.5,258.2 307.7,233.8 317.5,228.1 340.3,252.6 			"/>
			<polygon class="st5" points="350.1,246.9 327.3,222.5 337,216.9 359.8,241.3 			"/>
			<polygon class="st5" points="369.6,235.7 346.8,211.2 356.6,205.6 379.4,230 			"/>
			<polygon class="st5" points="389.1,224.4 366.3,200 376.1,194.3 398.9,218.8 			"/>
			<polygon class="st5" points="408.6,213.1 385.9,188.7 395.6,183 418.4,207.5 			"/>
			<path class="st5" d="M418.4,213.1c-0.2,3.4-2,6.5-4.9,8.4h0c-2.7,1.6-4.9,0.3-4.9-2.8v-5.7l9.8-5.6L418.4,213.1z"/>
			<path class="st5" d="M398.9,224.4c-0.2,3.4-2,6.5-4.9,8.4l0,0c-2.7,1.5-4.9,0.3-4.9-2.8v-5.7l9.8-5.6L398.9,224.4z"/>
			<path class="st5" d="M379.4,235.7c-0.2,3.4-2,6.5-4.9,8.4h0c-2.7,1.6-4.9,0.3-4.9-2.8v-5.7l9.8-5.6L379.4,235.7z"/>
			<path class="st5" d="M359.8,247c-0.2,3.4-2,6.5-4.9,8.4h0c-2.7,1.5-4.9,0.3-4.9-2.8v-5.7l9.8-5.6L359.8,247z"/>
			<path class="st5" d="M340.3,258.2c-0.2,3.4-2,6.5-4.9,8.4h0c-2.7,1.5-4.9,0.3-4.9-2.8v-5.7l9.8-5.6L340.3,258.2z"/>
			<g class="st22">
				<path d="M418.4,213.1c-0.2,3.4-2,6.5-4.9,8.4h0c-2.7,1.6-4.9,0.3-4.9-2.8v-5.7l9.8-5.6L418.4,213.1z"/>
				<path d="M398.9,224.4c-0.2,3.4-2,6.5-4.9,8.4l0,0c-2.7,1.5-4.9,0.3-4.9-2.8v-5.7l9.8-5.6L398.9,224.4z"/>
				<path d="M379.4,235.7c-0.2,3.4-2,6.5-4.9,8.4h0c-2.7,1.6-4.9,0.3-4.9-2.8v-5.7l9.8-5.6L379.4,235.7z"/>
				<path d="M359.8,247c-0.2,3.4-2,6.5-4.9,8.4h0c-2.7,1.5-4.9,0.3-4.9-2.8v-5.7l9.8-5.6L359.8,247z"/>
				<path d="M340.3,258.2c-0.2,3.4-2,6.5-4.9,8.4h0c-2.7,1.5-4.9,0.3-4.9-2.8v-5.7l9.8-5.6L340.3,258.2z"/>
			</g>
			<g class="st23">
				<polygon points="330.5,258.2 307.7,233.8 317.5,228.1 340.3,252.6 				"/>
				<polygon points="350.1,246.9 327.3,222.5 337,216.9 359.8,241.3 				"/>
				<polygon points="369.6,235.7 346.8,211.2 356.6,205.6 379.4,230 				"/>
				<polygon points="389.1,224.4 366.3,200 376.1,194.3 398.9,218.8 				"/>
				<polygon points="408.6,213.1 385.9,188.7 395.6,183 418.4,207.5 				"/>
			</g>
			<polygon class="st9" points="333.6,277.6 374.5,254 374.5,284.1 333.6,307.7 			"/>
			<polygon class="st5" points="334.7,278.3 375.6,254.7 375.6,284.8 334.7,308.4 			"/>
			<path class="st3" d="M340.6,279.3c0.2-0.1,0.4-0.2,0.6-0.2c0.2,0,0.3,0,0.5,0.1c0.1,0.1,0.2,0.2,0.3,0.4c0.1,0.2,0.1,0.5,0.1,0.8
				c0,0.4,0,0.7-0.2,1.1c-0.1,0.3-0.3,0.6-0.5,0.9l0.6,1.5c0,0,0,0.1,0,0.1c0,0,0,0.1,0,0.1c0,0,0,0.1-0.1,0.1l-0.7,0.4
				c-0.1,0-0.1,0-0.1,0c0,0-0.1-0.1-0.1-0.1l-0.6-1.4l-0.5,0.3v1.8c0,0.1,0,0.1,0,0.2c0,0-0.1,0.1-0.1,0.1l-0.7,0.4c0,0-0.1,0-0.1,0
				s0-0.1,0-0.1v-5.1c0-0.1,0-0.1,0-0.2c0-0.1,0.1-0.1,0.1-0.1L340.6,279.3z M340.1,282l0.6-0.3c0.1-0.1,0.3-0.2,0.4-0.3
				c0.1-0.2,0.2-0.3,0.1-0.5c0-0.2,0-0.4-0.1-0.4c-0.1,0-0.3,0-0.4,0.1l-0.6,0.3V282z"/>
			<path class="st3" d="M345.3,280.9c0,0,0.1,0,0.1,0c0,0,0,0.1,0,0.1v0.8c0,0.1,0,0.1,0,0.2c0,0-0.1,0.1-0.1,0.1l-2.5,1.4
				c0,0-0.1,0-0.1,0c0,0,0-0.1,0-0.1v-5.1c0-0.1,0-0.1,0-0.2c0,0,0.1-0.1,0.1-0.1l2.4-1.4c0,0,0.1,0,0.1,0c0,0,0,0,0,0
				c0,0,0.1,0.1,0,0.1v0.9c0,0.1,0,0.1,0,0.2c0,0,0,0.1-0.1,0.1l-1.6,0.9v0.9l1.5-0.9c0,0,0.1,0,0.1,0c0,0,0,0.1,0,0.1v0.8
				c0,0.1,0,0.1,0,0.2c0,0-0.1,0.1-0.1,0.1l-1.5,0.9v0.9L345.3,280.9z"/>
			<path class="st3" d="M346,279.9c0,0-0.1,0-0.1,0c0,0,0-0.1,0-0.1V279c0-0.1,0-0.1,0-0.2c0,0,0.1-0.1,0.1-0.1l1.6-0.9
				c0,0,0.1,0,0.1,0c0,0,0,0.1,0,0.1v0.8c0,0.1,0,0.1,0,0.2c0,0-0.1,0.1-0.1,0.1L346,279.9z"/>
			<path class="st3" d="M348.4,276.9c0-0.3,0.1-0.6,0.1-0.9c0.1-0.3,0.2-0.6,0.3-0.9c0.1-0.3,0.3-0.5,0.5-0.8
				c0.2-0.2,0.4-0.4,0.7-0.6c0.2-0.1,0.4-0.2,0.7-0.2c0.2,0,0.4,0.1,0.5,0.2c0.1,0.1,0.3,0.3,0.3,0.5c0.1,0.2,0.1,0.5,0.1,0.8
				c0,0.2,0,0.5,0,0.7s0,0.5,0,0.7c0,0.3-0.1,0.6-0.1,0.9c-0.1,0.3-0.2,0.6-0.3,0.9c-0.1,0.3-0.3,0.5-0.5,0.8
				c-0.2,0.2-0.4,0.4-0.7,0.6c-0.2,0.1-0.4,0.2-0.7,0.2c-0.2,0-0.4-0.1-0.5-0.2c-0.1-0.1-0.3-0.3-0.3-0.5c-0.1-0.3-0.1-0.5-0.1-0.8
				c0-0.2,0-0.5,0-0.7S348.4,277.1,348.4,276.9z M350.6,277c0-0.1,0-0.2,0-0.3s0-0.2,0-0.4s0-0.3,0-0.4s0-0.2,0-0.3
				c0-0.1,0-0.2,0-0.3c0-0.1-0.1-0.2-0.1-0.2c-0.1-0.1-0.1-0.1-0.2-0.1c-0.1,0-0.2,0-0.3,0.1c-0.1,0.1-0.2,0.1-0.3,0.2
				c-0.1,0.1-0.1,0.2-0.2,0.3c-0.1,0.1-0.1,0.2-0.1,0.4c0,0.1-0.1,0.3-0.1,0.4c0,0.1,0,0.2,0,0.3v0.7c0,0.1,0,0.2,0,0.3
				c0,0.2,0.1,0.4,0.2,0.6c0.1,0.1,0.3,0.1,0.5,0c0.2-0.1,0.4-0.3,0.5-0.5C350.5,277.5,350.6,277.3,350.6,277L350.6,277z"/>
			<path class="st3" d="M353.8,271.6c0.2-0.1,0.4-0.2,0.6-0.2c0.2,0,0.3,0,0.5,0.1c0.1,0.1,0.2,0.3,0.3,0.4c0.1,0.2,0.1,0.5,0.1,0.8
				c0,0.3,0,0.6-0.1,0.9c-0.1,0.3-0.2,0.5-0.3,0.7c-0.1,0.2-0.3,0.4-0.5,0.6c-0.2,0.2-0.4,0.3-0.6,0.5l-0.7,0.4v1.6
				c0,0.1,0,0.1,0,0.2c0,0,0,0.1-0.1,0.1l-0.7,0.4c0,0-0.1,0-0.1,0c0,0,0-0.1,0-0.1v-5.2c0-0.1,0-0.1,0-0.2c0,0,0.1-0.1,0.1-0.1
				L353.8,271.6z M353.2,274.5l0.6-0.4c0.2-0.1,0.3-0.2,0.4-0.4c0.1-0.2,0.2-0.4,0.1-0.6c0-0.2,0-0.4-0.1-0.4c-0.1,0-0.3,0-0.4,0.1
				l-0.6,0.4V274.5z"/>
			<path class="st3" d="M358.4,273.3c0,0,0.1,0,0.1,0c0,0,0,0.1,0,0.1v0.8c0,0.1,0,0.1,0,0.2c0,0-0.1,0.1-0.1,0.1l-2.5,1.4
				c0,0-0.1,0-0.1,0c0,0,0,0,0,0c0,0-0.1-0.1,0-0.1v-5.1c0-0.1,0-0.1,0-0.2c0,0,0-0.1,0.1-0.1l2.4-1.4c0,0,0.1,0,0.1,0
				c0,0,0,0.1,0,0.1v0.8c0,0.1,0,0.1,0,0.2c0,0-0.1,0.1-0.1,0.1l-1.6,0.9v0.9l1.5-0.9c0,0,0.1,0,0.1,0c0,0,0,0,0,0c0,0,0,0.1,0,0.1
				v0.9c0,0.1,0,0.1,0,0.2c0,0,0,0.1-0.1,0.1l-1.5,0.9v0.9L358.4,273.3z"/>
			<path class="st3" d="M361.5,272.8c-0.1,0-0.1,0-0.1,0l-0.1-0.1l-1.2-2v2.7c0,0.1,0,0.1,0,0.2c0,0-0.1,0.1-0.1,0.1l-0.7,0.4
				c0,0-0.1,0-0.1,0c0,0,0-0.1,0-0.1v-5.2c0-0.1,0-0.1,0-0.2c0,0,0.1-0.1,0.1-0.1l0.5-0.3c0,0,0.1,0,0.1,0l0.1,0.1l1.2,2v-2.7
				c0-0.1,0-0.1,0-0.2c0,0,0.1-0.1,0.1-0.1l0.7-0.4c0,0,0.1,0,0.1,0c0,0,0,0,0,0c0,0,0.1,0.1,0,0.1v5.1c0,0.1,0,0.1,0,0.2
				c0,0,0,0.1-0.1,0.1L361.5,272.8z"/>
			<path class="st3" d="M363,271.9c0,0-0.1,0-0.1,0c0,0,0-0.1,0-0.1v-5.1c0-0.1,0-0.1,0-0.2c0,0,0.1-0.1,0.1-0.1l0.7-0.4
				c0,0,0.1,0,0.1,0c0,0,0,0.1,0,0.1v5.2c0,0.1,0,0.1,0,0.2c0,0-0.1,0.1-0.1,0.1L363,271.9z"/>
			<path class="st3" d="M366.9,269.7c0,0-0.1,0-0.1,0l-0.1-0.1l-1.2-2v2.7c0,0.1,0,0.1,0,0.2c0,0,0,0.1-0.1,0.1l-0.7,0.4
				c0,0-0.1,0-0.1,0c0,0,0-0.1,0-0.1v-5.1c0-0.1,0-0.1,0-0.2c0,0,0.1-0.1,0.1-0.1l0.5-0.3c0.1,0,0.1,0,0.1,0c0,0,0.1,0,0.1,0.1
				l1.2,2v-2.7c0-0.1,0-0.1,0-0.2c0-0.1,0.1-0.1,0.1-0.1l0.7-0.4c0,0,0.1,0,0.1,0c0,0,0,0,0,0c0,0,0.1,0.1,0,0.1v5.2
				c0,0.1,0,0.1,0,0.2c0,0,0,0.1-0.1,0.1L366.9,269.7z"/>
			<path class="st3" d="M369.8,263.6c-0.1,0.1-0.2,0.1-0.3,0.3c-0.1,0.1-0.1,0.2-0.2,0.3c-0.1,0.1-0.1,0.2-0.1,0.4
				c0,0.1,0,0.3,0,0.4c0,0.1,0,0.2,0,0.3v0.4c0,0.1,0,0.3,0,0.4c0,0.1,0,0.2,0,0.3c0,0.1,0,0.2,0,0.3c0,0.1,0.1,0.2,0.1,0.2
				c0,0.1,0.1,0.1,0.2,0.1c0.1,0,0.2,0,0.3-0.1c0.1-0.1,0.2-0.1,0.3-0.2c0.1-0.1,0.2-0.2,0.2-0.3c0.1-0.1,0.1-0.2,0.1-0.4
				c0-0.1,0.1-0.3,0-0.4l-0.4,0.3c0,0-0.1,0-0.1,0c0,0,0-0.1,0-0.1v-0.9c0-0.1,0-0.1,0-0.2c0,0,0.1-0.1,0.1-0.1l1.3-0.7
				c0,0,0.1,0,0.1,0c0,0,0,0.1,0,0.1v1c0,0.3,0,0.7-0.1,1c-0.1,0.3-0.2,0.6-0.3,0.9c-0.1,0.3-0.3,0.5-0.5,0.7
				c-0.2,0.2-0.4,0.4-0.6,0.5c-0.2,0.1-0.4,0.2-0.7,0.2c-0.2,0-0.4-0.1-0.5-0.2c-0.1-0.1-0.3-0.3-0.3-0.5c-0.1-0.2-0.1-0.5-0.1-0.8
				c0-0.2,0-0.4,0-0.7s0-0.5,0-0.7c0-0.3,0-0.6,0.1-0.9c0.1-0.3,0.2-0.6,0.3-0.9c0.1-0.3,0.3-0.5,0.5-0.8c0.2-0.2,0.4-0.4,0.7-0.5
				c0.2-0.1,0.4-0.2,0.6-0.2c0.2,0,0.3,0,0.5,0.1c0.1,0.1,0.2,0.2,0.3,0.4c0.1,0.2,0.1,0.3,0.1,0.5c0,0,0,0.1,0,0.1
				c0,0,0,0.1-0.1,0.1l-0.7,0.4c0,0-0.1,0-0.1,0c0,0-0.1-0.1-0.1-0.1c-0.1-0.1-0.1-0.1-0.2-0.1C370.1,263.5,370,263.5,369.8,263.6z"
				/>
			<path class="st3" d="M342.3,286.7c0.4-0.3,0.9-0.4,1.4-0.5c0.4,0,0.8,0.1,1.1,0.2c0.3,0.2,0.6,0.4,0.7,0.8
				c0.2,0.3,0.3,0.7,0.3,1.1c0,0.1,0,0.2-0.1,0.3c0,0.1-0.1,0.2-0.2,0.2l-1.6,0.9c-0.1,0.1-0.2,0.1-0.3,0.1c-0.1,0-0.1-0.1-0.2-0.1
				l-0.1-0.1c-0.1-0.1-0.1-0.1-0.2-0.1c-0.1,0-0.2,0-0.4,0c-0.2,0-0.4,0.1-0.5,0.2c-0.1,0.1-0.3,0.2-0.4,0.3
				c-0.1,0.1-0.3,0.2-0.4,0.4c-0.1,0.1-0.2,0.3-0.3,0.4c-0.1,0.2-0.1,0.3-0.1,0.5c0,0.1,0,0.3,0.1,0.4c0.1,0.1,0.2,0.1,0.4,0.1
				c0.2,0,0.5,0,0.7-0.1l1.1-0.3c0.4-0.1,0.8-0.2,1.1-0.1c0.3,0,0.6,0.1,0.8,0.3c0.2,0.2,0.4,0.5,0.5,0.8c0.1,0.5,0.2,0.9,0.2,1.4
				c0,0.6-0.1,1.2-0.3,1.8c-0.4,1.2-1,2.3-1.9,3.2c-0.4,0.4-0.9,0.8-1.5,1.1c-0.4,0.3-0.9,0.5-1.5,0.5c-0.4,0-0.8,0-1.1-0.2
				c-0.3-0.2-0.6-0.4-0.8-0.8c-0.2-0.4-0.3-0.8-0.3-1.2c0-0.1,0-0.2,0.1-0.3c0-0.1,0.1-0.2,0.2-0.2l1.6-0.9c0.1-0.1,0.2-0.1,0.3-0.1
				c0.1,0,0.1,0,0.2,0.1c0.1,0,0.1,0.1,0.1,0.2c0.1,0.1,0.2,0.1,0.3,0.2c0.1,0.1,0.3,0.1,0.4,0.1c0.2,0,0.4-0.1,0.6-0.2
				c0.4-0.2,0.7-0.5,1-0.8c0.3-0.3,0.4-0.6,0.4-1c0-0.1,0-0.3-0.2-0.4c-0.1-0.1-0.3-0.1-0.5-0.1c-0.3,0-0.5,0.1-0.8,0.1
				c-0.3,0.1-0.7,0.2-1.1,0.3c-0.6,0.2-1.3,0.1-1.8-0.3c-0.4-0.6-0.6-1.4-0.6-2.2c0-0.6,0.1-1.1,0.2-1.6c0.2-0.6,0.4-1.1,0.7-1.6
				c0.3-0.5,0.7-1,1.1-1.5C341.3,287.4,341.7,287,342.3,286.7z"/>
			<path class="st3" d="M346.9,289c0-0.7,0.1-1.4,0.3-2.1c0.2-0.7,0.4-1.4,0.7-2c0.3-0.6,0.7-1.2,1.1-1.7c0.4-0.5,1-1,1.5-1.3
				c0.5-0.3,1-0.5,1.5-0.5c0.4,0,0.8,0.1,1.1,0.4c0.3,0.3,0.6,0.7,0.7,1.2c0.2,0.6,0.3,1.2,0.3,1.8c0,0.5,0,1.1,0,1.6s0,1.1,0,1.6
				c0,0.7-0.1,1.4-0.3,2c-0.2,0.7-0.4,1.4-0.7,2c-0.3,0.6-0.7,1.2-1.1,1.7c-0.4,0.5-1,0.9-1.5,1.3c-0.5,0.3-1,0.5-1.5,0.5
				c-0.4,0-0.8-0.1-1.1-0.4c-0.3-0.3-0.6-0.7-0.7-1.2c-0.2-0.6-0.3-1.2-0.3-1.8c0-0.5,0-1,0-1.6S346.9,289.5,346.9,289z
				 M352.1,289.1c0-0.2,0-0.5,0-0.7s0-0.5,0-0.8s0-0.5,0-0.8s0-0.5,0-0.7c0-0.3-0.1-0.5-0.1-0.8c0-0.2-0.1-0.4-0.3-0.5
				c-0.1-0.1-0.3-0.2-0.5-0.2c-0.2,0-0.4,0.1-0.6,0.2c-0.2,0.1-0.5,0.3-0.6,0.5c-0.2,0.2-0.3,0.5-0.5,0.7c-0.1,0.3-0.2,0.5-0.3,0.8
				c-0.1,0.3-0.1,0.6-0.1,0.9c0,0.2,0,0.5,0,0.7s0,0.5,0,0.8s0,0.6,0,0.8s0,0.5,0,0.7c0,0.5,0.1,0.9,0.4,1.3c0.2,0.3,0.6,0.3,1.1,0
				c0.5-0.3,0.9-0.7,1.1-1.2C352,290.4,352.1,289.7,352.1,289.1L352.1,289.1z"/>
			<path class="st3" d="M355.4,284c0-0.7,0.1-1.4,0.3-2.1c0.2-0.7,0.4-1.4,0.7-2c0.3-0.6,0.7-1.2,1.1-1.7c0.4-0.5,1-0.9,1.5-1.3
				c0.5-0.3,1-0.5,1.5-0.5c0.4,0,0.8,0.1,1.1,0.4c0.3,0.3,0.6,0.7,0.7,1.1c0.2,0.6,0.3,1.2,0.3,1.8c0,0.5,0,1.1,0,1.6s0,1.1,0,1.6
				c0,0.7-0.1,1.4-0.3,2.1c-0.2,0.7-0.4,1.4-0.7,2c-0.3,0.6-0.7,1.2-1.1,1.7c-0.4,0.5-1,0.9-1.5,1.3c-0.5,0.3-1,0.5-1.5,0.5
				c-0.4,0-0.8-0.1-1.1-0.4c-0.3-0.3-0.6-0.7-0.7-1.2c-0.2-0.6-0.3-1.2-0.3-1.8c0-0.5,0-1,0-1.6S355.4,284.6,355.4,284z
				 M360.6,284.2c0-0.2,0-0.5,0-0.8s0-0.5,0-0.8s0-0.5,0-0.8s0-0.5,0-0.7c0-0.3-0.1-0.5-0.1-0.8c-0.1-0.2-0.2-0.4-0.3-0.5
				c-0.1-0.1-0.3-0.2-0.5-0.2c-0.2,0-0.4,0.1-0.6,0.2c-0.2,0.1-0.5,0.3-0.6,0.5c-0.2,0.2-0.3,0.5-0.5,0.7c-0.1,0.3-0.2,0.5-0.3,0.8
				c-0.1,0.3-0.1,0.6-0.1,0.9c0,0.2,0,0.4,0,0.7v1.6c0,0.3,0,0.5,0,0.7c0,0.5,0.1,0.9,0.4,1.3c0.2,0.3,0.6,0.3,1.1,0
				c0.5-0.3,0.9-0.7,1.1-1.2C360.5,285.4,360.6,284.8,360.6,284.2L360.6,284.2z"/>
			<path class="st3" d="M369.6,283.9c-0.1,0.1-0.3,0.1-0.3,0c-0.1,0-0.1-0.1-0.2-0.2l-2.7-4.7v6.2c0,0.1,0,0.3-0.1,0.4
				c0,0.1-0.1,0.2-0.2,0.3l-1.6,0.9c-0.1,0.1-0.2,0.1-0.2,0c-0.1-0.1-0.1-0.2-0.1-0.3v-11.8c0-0.1,0-0.3,0.1-0.4
				c0-0.1,0.1-0.2,0.2-0.3l1.2-0.7c0.1-0.1,0.2-0.1,0.3,0c0.1,0,0.1,0.1,0.2,0.2l2.7,4.7v-6.2c0-0.1,0-0.3,0.1-0.4
				c0-0.1,0.1-0.2,0.2-0.3l1.5-0.9c0.1-0.1,0.2-0.1,0.2,0c0.1,0.1,0.1,0.2,0.1,0.3v11.8c0,0.1,0,0.3-0.1,0.4c0,0.1-0.1,0.2-0.2,0.3
				L369.6,283.9z"/>
			<g id="freepik--window--inject-164">
				<polygon class="st5" points="181.9,286.6 181.9,375.3 87.9,321.1 87.9,232.4 				"/>
				<polygon class="st5" points="181.9,286.6 181.9,375.3 87.9,321.1 87.9,232.4 				"/>
				<polygon class="st8" points="181.9,286.6 181.9,375.3 87.9,321.1 87.9,232.4 				"/>
				<polygon class="st3" points="95.1,242.1 177,289.4 177,364.2 95.1,316.9 				"/>
				<polygon class="st4" points="177,357.5 177,356 95.1,308.7 95.1,310.3 				"/>
				<polygon class="st4" points="177,348.9 177,347.4 95.1,300.1 95.1,301.6 				"/>
				<polygon class="st4" points="177,340.3 177,338.8 95.1,291.5 95.1,293 				"/>
				<polygon class="st4" points="177,331.7 177,330.2 95.1,282.9 95.1,284.4 				"/>
				<polygon class="st4" points="177,323.1 177,321.5 95.1,274.3 95.1,275.8 				"/>
				<polygon class="st4" points="177,314.4 177,312.9 95.1,265.6 95.1,267.1 				"/>
				<polygon class="st4" points="177,305.8 177,304.3 95.1,257 95.1,258.5 				"/>
				<polygon class="st4" points="177,297.2 177,295.7 95.1,248.4 95.1,249.9 				"/>
				<polygon class="st5" points="92.7,318.3 95.1,316.9 95.1,242.1 92.7,240.7 				"/>
				<polygon class="st24" points="92.7,318.3 95.1,316.9 95.1,242.1 92.7,240.7 				"/>
				<polygon class="st5" points="181.9,375.3 184.3,374 184.3,285.2 181.9,286.6 				"/>
				<polygon class="st24" points="181.9,375.3 184.3,374 184.3,285.2 181.9,286.6 				"/>
				<polygon class="st5" points="92.7,318.3 95.1,316.9 177,364.2 177,367 				"/>
				<polygon class="st12" points="92.7,318.3 95.1,316.9 177,364.2 177,367 				"/>
				<polygon class="st5" points="87.9,232.4 90.3,231 184.3,285.2 181.9,286.6 				"/>
				<polygon class="st19" points="87.9,232.4 90.3,231 184.3,285.2 181.9,286.6 				"/>
			</g>
			<polygon class="st1" points="190,284.3 190,273 167.2,297.5 			"/>
			<path class="st21" d="M59.8,241.1c0.2,3.4,2,6.6,4.9,8.4h0.1c2.7,1.6,4.9,0.3,4.9-2.8v-5.7l-9.8-5.6V241.1z"/>
			<path class="st21" d="M79.3,252.4c0.2,3.4,2,6.5,4.9,8.4l0,0c2.7,1.5,4.9,0.3,4.9-2.8v-5.7l-9.8-5.6L79.3,252.4z"/>
			<path class="st21" d="M98.8,263.7c0.2,3.4,2,6.5,4.9,8.4l0,0c2.7,1.5,4.9,0.3,4.9-2.8v-5.7l-9.7-5.6V263.7z"/>
			<path class="st21" d="M118.4,275c0.2,3.4,2,6.5,4.9,8.4l0,0c2.7,1.5,4.9,0.3,4.9-2.8V275l-9.8-5.6L118.4,275z"/>
			<path class="st21" d="M137.9,286.2c0.2,3.4,2,6.5,4.9,8.4h0.1c2.7,1.5,4.9,0.3,4.9-2.8v-5.6l-9.8-5.6V286.2z"/>
			<path class="st21" d="M157.4,297.5c0.2,3.4,2,6.6,4.9,8.4h0.1c2.7,1.5,4.9,0.3,4.9-2.8v-5.7l-9.8-5.6L157.4,297.5z"/>
			<polygon class="st13" points="167.2,297.5 59.8,235.4 82.6,211 190,273 			"/>
			<polygon class="st5" points="157.4,291.8 180.2,267.4 170.4,261.8 147.7,286.2 			"/>
			<polygon class="st5" points="137.9,280.6 160.7,256.1 150.9,250.5 128.1,274.9 			"/>
			<polygon class="st5" points="118.4,269.3 141.2,244.9 131.4,239.2 108.6,263.6 			"/>
			<polygon class="st5" points="98.8,258 121.6,233.6 111.9,227.9 89.1,252.4 			"/>
			<polygon class="st5" points="79.3,246.7 102.1,222.3 92.3,216.7 69.5,241.1 			"/>
			<path class="st5" d="M69.5,246.8c0.2,3.4,2,6.5,4.9,8.4l0,0c2.7,1.6,4.9,0.3,4.9-2.8v-5.7l-9.8-5.6L69.5,246.8z"/>
			<path class="st5" d="M89.1,258c0.2,3.4,2,6.5,4.8,8.4l0,0c2.7,1.5,4.9,0.3,4.9-2.8V258l-9.8-5.6L89.1,258z"/>
			<path class="st5" d="M108.6,269.3c0.2,3.4,2,6.6,4.9,8.4h0.1c2.7,1.5,4.8,0.3,4.8-2.8v-5.7l-9.8-5.6V269.3z"/>
			<path class="st5" d="M128.1,280.6c0.2,3.4,2,6.5,4.9,8.4l0,0c2.7,1.5,4.9,0.3,4.9-2.8v-5.7l-9.8-5.6L128.1,280.6z"/>
			<path class="st5" d="M147.7,291.9c0.2,3.4,2,6.5,4.9,8.4l0,0c2.7,1.5,4.9,0.3,4.9-2.8v-5.7l-9.8-5.6L147.7,291.9z"/>
			<g class="st22">
				<path d="M69.5,246.8c0.2,3.4,2,6.5,4.9,8.4l0,0c2.7,1.6,4.9,0.3,4.9-2.8v-5.7l-9.8-5.6L69.5,246.8z"/>
				<path d="M89.1,258c0.2,3.4,2,6.5,4.8,8.4l0,0c2.7,1.5,4.9,0.3,4.9-2.8V258l-9.8-5.6L89.1,258z"/>
				<path d="M108.6,269.3c0.2,3.4,2,6.6,4.9,8.4h0.1c2.7,1.5,4.8,0.3,4.8-2.8v-5.7l-9.8-5.6V269.3z"/>
				<path d="M128.1,280.6c0.2,3.4,2,6.5,4.9,8.4l0,0c2.7,1.5,4.9,0.3,4.9-2.8v-5.7l-9.8-5.6L128.1,280.6z"/>
				<path d="M147.7,291.9c0.2,3.4,2,6.5,4.9,8.4l0,0c2.7,1.5,4.9,0.3,4.9-2.8v-5.7l-9.8-5.6L147.7,291.9z"/>
			</g>
			<g class="st23">
				<polygon points="157.4,291.8 180.2,267.4 170.4,261.8 147.7,286.2 				"/>
				<polygon points="137.9,280.6 160.7,256.1 150.9,250.5 128.1,274.9 				"/>
				<polygon points="118.4,269.3 141.2,244.9 131.4,239.2 108.6,263.6 				"/>
				<polygon points="98.8,258 121.6,233.6 111.9,227.9 89.1,252.4 				"/>
				<polygon points="79.3,246.7 102.1,222.3 92.3,216.7 69.5,241.1 				"/>
			</g>
			<polygon class="st9" points="154.9,311.3 114,287.6 114,317.7 154.9,341.3 			"/>
			<polygon class="st5" points="153.8,312 112.8,288.3 112.8,318.4 153.8,342 			"/>
			<path class="st3" d="M118.8,296.1c0.2,0.1,0.4,0.3,0.6,0.5c0.2,0.2,0.3,0.4,0.5,0.6c0.1,0.2,0.2,0.5,0.3,0.7
				c0.1,0.3,0.1,0.6,0.1,0.9c0,0.3,0,0.6-0.2,0.9c-0.1,0.2-0.3,0.3-0.5,0.3l0.6,2.3c0,0,0,0.1,0,0.1c0,0,0,0.1,0,0.1
				c0,0-0.1,0-0.1,0l-0.7-0.4c-0.1,0-0.1-0.1-0.2-0.1c0-0.1,0-0.1-0.1-0.2l-0.6-2l-0.5-0.3v1.7c0,0,0,0.1,0,0.1c0,0-0.1,0-0.1,0
				l-0.7-0.4c0,0-0.1-0.1-0.1-0.1c0-0.1,0-0.1,0-0.2v-5.1c0,0,0-0.1,0-0.1c0,0,0.1,0,0.1,0L118.8,296.1z M118.2,298.2l0.6,0.3
				c0.1,0.1,0.2,0.1,0.4,0.1c0.1,0,0.1-0.2,0.1-0.4c0-0.2,0-0.4-0.1-0.5c-0.1-0.1-0.2-0.2-0.4-0.3l-0.6-0.3V298.2z"/>
			<path class="st3" d="M123.4,303.1c0,0,0.1,0.1,0.1,0.1c0,0.1,0,0.1,0,0.2v0.8c0,0,0,0.1,0,0.1c0,0-0.1,0-0.1,0L121,303
				c0,0-0.1-0.1-0.1-0.1c0-0.1,0-0.1,0-0.2v-5.1c0-0.1,0-0.1,0-0.1s0.1,0,0.1,0l2.4,1.4c0,0,0.1,0.1,0.1,0.1c0,0.1,0,0.1,0,0.2v0.9
				c0,0,0,0.1,0,0.1c0,0-0.1,0-0.1,0l-1.6-0.9v0.8l1.5,0.9c0,0,0.1,0.1,0.1,0.1c0,0.1,0,0.1,0,0.2v0.8c0,0,0,0.1,0,0.1
				c0,0-0.1,0-0.1,0l-1.5-0.9v0.9L123.4,303.1z"/>
			<path class="st3" d="M124.2,303.1c0,0-0.1-0.1-0.1-0.1c0-0.1,0-0.1,0-0.2V302c0-0.1,0-0.1,0-0.1c0,0,0.1,0,0.1,0l1.6,0.9
				c0,0,0.1,0.1,0.1,0.1c0,0.1,0,0.1,0,0.2v0.8c0,0,0,0.1,0,0.1c0,0-0.1,0-0.1,0L124.2,303.1z"/>
			<path class="st3" d="M126.5,302.7c0-0.3,0-0.5,0.1-0.8c0.1-0.2,0.2-0.4,0.3-0.5c0.1-0.1,0.3-0.2,0.5-0.2c0.2,0,0.5,0.1,0.7,0.2
				c0.3,0.2,0.5,0.3,0.7,0.6c0.2,0.2,0.4,0.5,0.5,0.8c0.1,0.3,0.3,0.6,0.3,0.9c0.1,0.3,0.1,0.6,0.1,0.9c0,0.2,0,0.5,0,0.7
				s0,0.5,0,0.7c0,0.3-0.1,0.5-0.1,0.8c-0.1,0.2-0.2,0.4-0.3,0.5c-0.1,0.1-0.3,0.2-0.5,0.2c-0.2,0-0.5-0.1-0.7-0.2
				c-0.3-0.1-0.5-0.3-0.7-0.6c-0.2-0.2-0.4-0.5-0.5-0.8c-0.1-0.3-0.2-0.6-0.3-0.9c-0.1-0.3-0.1-0.6-0.1-0.9c0-0.2,0-0.5,0-0.7
				S126.5,302.9,126.5,302.7z M128.8,305.4c0-0.1,0-0.2,0-0.3v-0.7c0-0.1,0-0.2,0-0.3c0-0.1,0-0.3-0.1-0.4c0-0.1-0.1-0.2-0.1-0.4
				c-0.1-0.1-0.1-0.2-0.2-0.3c-0.1-0.1-0.2-0.2-0.3-0.2c-0.1-0.1-0.2-0.1-0.3-0.1c-0.1,0-0.1,0-0.2,0.1c-0.1,0.1-0.1,0.1-0.1,0.2
				c0,0.1-0.1,0.2-0.1,0.3c0,0.1,0,0.2,0,0.3c0,0.1,0,0.2,0,0.4s0,0.2,0,0.4s0,0.2,0,0.3c0,0.3,0.1,0.5,0.2,0.8
				c0.1,0.2,0.3,0.4,0.5,0.5c0.2,0.1,0.4,0.1,0.5,0C128.7,305.8,128.7,305.6,128.8,305.4L128.8,305.4z"/>
			<path class="st3" d="M131.9,303.8c0.2,0.1,0.4,0.3,0.6,0.5c0.2,0.2,0.3,0.4,0.4,0.6c0.1,0.2,0.2,0.5,0.3,0.8
				c0.1,0.3,0.1,0.6,0.1,0.9c0,0.3,0,0.5-0.1,0.8c0,0.2-0.1,0.3-0.3,0.4c-0.1,0.1-0.3,0.1-0.4,0.1c-0.2,0-0.4-0.1-0.6-0.2l-0.7-0.4
				v1.6c0,0.1,0,0.1,0,0.1c0,0-0.1,0-0.1,0l-0.7-0.4c0,0-0.1-0.1-0.1-0.1c0-0.1,0-0.1,0-0.2V303c0,0,0-0.1,0-0.1c0,0,0.1,0,0.1,0
				L131.9,303.8z M131.3,305.9l0.6,0.4c0.1,0.1,0.2,0.1,0.4,0.1c0.1,0,0.1-0.2,0.1-0.4c0-0.2,0-0.4-0.1-0.6
				c-0.1-0.1-0.2-0.3-0.4-0.4l-0.6-0.4V305.9z"/>
			<path class="st3" d="M136.5,310.7c0,0,0.1,0.1,0.1,0.1c0,0.1,0,0.1,0,0.2v0.8c0,0,0,0.1,0,0.1c0,0-0.1,0-0.1,0l-2.5-1.4
				c0,0-0.1-0.1-0.1-0.1c0-0.1,0-0.1,0-0.2v-5.1c0,0,0-0.1,0-0.1c0,0,0.1,0,0.1,0l2.4,1.4c0,0,0.1,0.1,0.1,0.1c0,0.1,0,0.1,0,0.2
				v0.9c0,0,0,0.1,0,0.1c0,0-0.1,0-0.1,0l-1.6-0.9v0.9l1.5,0.9c0,0,0.1,0.1,0.1,0.1c0,0.1,0,0.1,0,0.2v0.8c0,0,0,0.1,0,0.1
				c0,0-0.1,0-0.1,0l-1.5-0.9v0.9L136.5,310.7z"/>
			<path class="st3" d="M139.6,313.7c-0.1,0-0.1-0.1-0.1-0.2c0,0-0.1-0.1-0.1-0.1l-1.2-3.4v2.7c0,0,0,0.1,0,0.1c0,0-0.1,0-0.1,0
				l-0.7-0.4c0,0-0.1-0.1-0.1-0.1c0-0.1,0-0.1-0.1-0.2V307c0,0,0-0.1,0.1-0.1c0,0,0.1,0,0.1,0l0.5,0.3c0.1,0,0.1,0.1,0.1,0.1
				c0,0.1,0,0.1,0.1,0.2l1.2,3.4v-2.7c0,0,0-0.1,0.1-0.1c0,0,0.1,0,0.1,0c0,0,0,0,0,0l0.7,0.4c0,0,0.1,0.1,0.1,0.1
				c0,0.1,0,0.1,0,0.2v5.1c0,0,0,0.1,0,0.1c0,0-0.1,0-0.1,0L139.6,313.7z"/>
			<path class="st3" d="M141.1,314.6c0,0-0.1-0.1-0.1-0.1c0-0.1,0-0.1,0-0.2v-5.1c0-0.1,0-0.1,0-0.1c0,0,0.1,0,0.1,0l0.7,0.4
				c0,0,0.1,0.1,0.1,0.1c0,0.1,0,0.1,0,0.2v5.2c0,0,0,0.1,0,0.1c0,0-0.1,0-0.1,0L141.1,314.6z"/>
			<path class="st3" d="M145,316.9c-0.1,0-0.1-0.1-0.1-0.1c0,0-0.1-0.1-0.1-0.1l-1.2-3.4v2.7c0,0,0,0.1,0,0.1c0,0-0.1,0-0.1,0
				l-0.7-0.4c0,0-0.1-0.1-0.1-0.1c0-0.1,0-0.1,0-0.2v-5.2c0,0,0-0.1,0-0.1c0,0,0.1,0,0.1,0c0,0,0,0,0,0l0.5,0.3
				c0.1,0,0.1,0.1,0.1,0.2c0,0.1,0,0.1,0.1,0.1l1.2,3.4v-2.7c0,0,0-0.1,0-0.1c0,0,0.1,0,0.1,0l0.7,0.4c0,0,0.1,0.1,0.1,0.1
				c0,0.1,0,0.1,0,0.2v5.2c0,0,0,0.1,0,0.1c0,0-0.1,0-0.1,0L145,316.9z"/>
			<path class="st3" d="M147.9,314.2c-0.1-0.1-0.2-0.1-0.3-0.1c-0.1,0-0.1,0-0.2,0.1c-0.1,0.1-0.1,0.1-0.1,0.2c0,0.1,0,0.2-0.1,0.3
				c0,0.1,0,0.2,0,0.3v0.8c0,0.1,0,0.2,0,0.3s0,0.3,0.1,0.4c0,0.1,0.1,0.2,0.1,0.4c0,0.1,0.1,0.2,0.2,0.3c0.1,0.1,0.2,0.2,0.3,0.3
				c0.1,0,0.2,0.1,0.3,0.1c0.1,0,0.1,0,0.2,0c0.1,0,0.1-0.1,0.1-0.2c0-0.1,0.1-0.3,0.1-0.4l-0.4-0.3c0,0-0.1-0.1-0.1-0.1
				c0-0.1,0-0.1-0.1-0.2v-0.9c0,0,0-0.1,0.1-0.1c0,0,0.1,0,0.1,0c0,0,0,0,0,0l1.3,0.7c0,0,0.1,0.1,0.1,0.1c0,0.1,0,0.1,0,0.2v1
				c0,0.3,0,0.6-0.1,0.8c-0.1,0.2-0.2,0.4-0.3,0.5c-0.1,0.1-0.3,0.2-0.5,0.1c-0.2,0-0.4-0.1-0.6-0.2c-0.3-0.1-0.5-0.3-0.7-0.5
				c-0.2-0.2-0.4-0.5-0.5-0.8c-0.1-0.3-0.2-0.6-0.3-0.9c-0.1-0.3-0.1-0.6-0.1-0.9c0-0.2,0-0.5,0-0.7s0-0.5,0-0.7
				c0-0.3,0-0.5,0.1-0.8c0.1-0.2,0.2-0.4,0.3-0.5c0.1-0.1,0.3-0.2,0.5-0.2c0.2,0,0.5,0.1,0.7,0.2c0.2,0.1,0.5,0.3,0.6,0.5
				c0.2,0.2,0.4,0.4,0.5,0.7c0.1,0.2,0.2,0.5,0.3,0.7c0.1,0.2,0.1,0.4,0.1,0.6c0,0,0,0.1,0,0.1c0,0-0.1,0-0.1,0l-0.7-0.4
				c-0.1,0-0.1-0.1-0.1-0.1l-0.1-0.2c-0.1-0.1-0.1-0.3-0.2-0.4C148.2,314.4,148.1,314.2,147.9,314.2z"/>
			<path class="st3" d="M120.4,305.4c0.5,0.3,1,0.7,1.4,1.1c0.4,0.5,0.8,1,1.1,1.5c0.3,0.5,0.5,1,0.7,1.6c0.2,0.4,0.3,0.9,0.3,1.4
				c0,0.1,0,0.2-0.1,0.2c-0.1,0-0.1,0-0.2,0l-1.6-0.9c-0.1-0.1-0.2-0.1-0.3-0.2c-0.1-0.1-0.2-0.2-0.2-0.3l-0.1-0.3
				c-0.1-0.1-0.1-0.3-0.2-0.4c-0.1-0.2-0.2-0.3-0.4-0.4c-0.2-0.2-0.3-0.3-0.5-0.4c-0.1-0.1-0.3-0.1-0.4-0.2c-0.1,0-0.2-0.1-0.4-0.1
				c-0.1,0-0.2,0.1-0.3,0.1c-0.1,0.1-0.1,0.3-0.1,0.4c0,0.2,0,0.4,0.1,0.5c0.1,0.2,0.2,0.4,0.4,0.6c0.2,0.2,0.5,0.5,0.7,0.7l1.1,1
				c0.4,0.4,0.8,0.8,1.1,1.2c0.3,0.4,0.6,0.8,0.8,1.3c0.2,0.4,0.4,0.9,0.5,1.4c0.1,0.5,0.2,1.1,0.2,1.6c0,0.5-0.1,1-0.3,1.5
				c-0.2,0.4-0.4,0.6-0.8,0.8c-0.4,0.2-0.8,0.2-1.2,0.1c-0.5-0.1-1-0.3-1.5-0.6c-0.5-0.3-1-0.7-1.5-1.2c-0.4-0.5-0.8-1-1.1-1.5
				c-0.3-0.5-0.6-1.1-0.8-1.7c-0.2-0.5-0.3-1-0.3-1.5c0-0.1,0-0.2,0.1-0.2c0.1,0,0.1,0,0.2,0l1.6,0.9c0.1,0.1,0.2,0.1,0.3,0.2
				c0.1,0.1,0.1,0.2,0.2,0.3c0,0.1,0.1,0.2,0.1,0.3c0.1,0.2,0.2,0.3,0.3,0.5c0.1,0.2,0.3,0.4,0.4,0.5c0.2,0.2,0.4,0.4,0.6,0.5
				c0.3,0.2,0.6,0.3,1,0.4c0.3,0,0.4-0.1,0.4-0.5c0-0.2-0.1-0.4-0.2-0.5c-0.1-0.2-0.3-0.4-0.5-0.6c-0.2-0.3-0.5-0.5-0.8-0.8
				c-0.3-0.3-0.7-0.6-1.1-1c-0.8-0.7-1.4-1.5-1.8-2.4c-0.4-0.9-0.6-1.9-0.6-2.8c0-0.5,0.1-0.9,0.2-1.4c0.1-0.4,0.4-0.7,0.7-0.9
				c0.3-0.2,0.7-0.3,1.1-0.3C119.4,305,119.9,305.2,120.4,305.4z"/>
			<path class="st3" d="M125,313.1c0-0.6,0.1-1.2,0.3-1.8c0.1-0.4,0.4-0.8,0.7-1.2c0.3-0.3,0.7-0.4,1.1-0.4c0.6,0,1.1,0.2,1.5,0.5
				c0.6,0.3,1.1,0.8,1.6,1.3c0.5,0.5,0.8,1.1,1.1,1.7c0.3,0.6,0.6,1.3,0.7,2c0.2,0.7,0.3,1.4,0.3,2.1c0,0.5,0,1.1,0,1.7s0,1.1,0,1.6
				c0,0.6-0.1,1.2-0.3,1.8c-0.1,0.4-0.4,0.8-0.7,1.2c-0.3,0.3-0.7,0.4-1.1,0.4c-0.6,0-1.1-0.2-1.6-0.5c-0.6-0.3-1.1-0.8-1.6-1.3
				c-0.4-0.5-0.8-1.1-1.1-1.7c-0.3-0.6-0.6-1.3-0.7-2c-0.2-0.7-0.3-1.4-0.3-2.1c0-0.5,0-1,0-1.6S125,313.6,125,313.1z M130.2,319.3
				c0-0.2,0-0.5,0-0.7s0-0.5,0-0.8s0-0.5,0-0.8s0-0.5,0-0.7c0-0.3,0-0.6-0.1-0.9c-0.1-0.3-0.2-0.6-0.3-0.8c-0.1-0.3-0.3-0.5-0.4-0.7
				c-0.2-0.2-0.4-0.4-0.6-0.5c-0.2-0.1-0.4-0.2-0.6-0.2c-0.2,0-0.3,0.1-0.4,0.2c-0.1,0.1-0.2,0.3-0.3,0.5c-0.1,0.3-0.1,0.5-0.1,0.8
				c0,0.2,0,0.4,0,0.7v1.6c0,0.3,0,0.5,0,0.7c0,0.6,0.2,1.2,0.4,1.8c0.2,0.5,0.6,1,1.1,1.2c0.5,0.3,0.9,0.3,1.1,0
				C130.1,320.1,130.2,319.7,130.2,319.3L130.2,319.3z"/>
			<path class="st3" d="M133.6,318c0-0.6,0.1-1.2,0.3-1.8c0.1-0.4,0.4-0.8,0.7-1.1c0.3-0.3,0.7-0.4,1.1-0.4c0.6,0,1.1,0.2,1.6,0.5
				c0.6,0.3,1.1,0.8,1.5,1.3c0.5,0.5,0.8,1.1,1.1,1.7c0.3,0.6,0.6,1.3,0.7,2c0.2,0.7,0.3,1.4,0.3,2.1c0,0.5,0,1.1,0,1.7s0,1.1,0,1.6
				c0,0.6-0.1,1.2-0.3,1.8c-0.1,0.4-0.4,0.8-0.7,1.2c-0.3,0.3-0.7,0.4-1.1,0.4c-0.5,0-1.1-0.2-1.5-0.5c-0.6-0.3-1.1-0.8-1.6-1.3
				c-0.5-0.5-0.8-1.1-1.1-1.7c-0.3-0.6-0.6-1.3-0.7-2c-0.2-0.7-0.3-1.4-0.3-2.1c0-0.5,0-1,0-1.6S133.5,318.5,133.6,318z
				 M138.8,324.2c0-0.2,0-0.5,0-0.7s0-0.5,0-0.8s0-0.5,0-0.8s0-0.5,0-0.7c0-0.3-0.1-0.6-0.1-0.9c-0.1-0.6-0.4-1.1-0.7-1.5
				c-0.2-0.2-0.4-0.4-0.6-0.5c-0.2-0.1-0.4-0.2-0.6-0.2c-0.2,0-0.3,0.1-0.5,0.2c-0.1,0.1-0.2,0.3-0.3,0.5c-0.1,0.3-0.1,0.5-0.1,0.8
				c0,0.2,0,0.5,0,0.7c0,0.3,0,0.5,0,0.8s0,0.6,0,0.8s0,0.5,0,0.8c0,0.6,0.2,1.2,0.4,1.8c0.2,0.5,0.6,1,1.1,1.2
				c0.5,0.3,0.9,0.3,1.1,0C138.6,325.1,138.8,324.6,138.8,324.2z"/>
			<path class="st3" d="M147.8,334.2c-0.1-0.1-0.2-0.2-0.3-0.4c-0.1-0.1-0.1-0.2-0.2-0.4l-2.7-7.8v6.2c0,0.1,0,0.2-0.1,0.3
				c-0.1,0.1-0.2,0.1-0.2,0l-1.6-0.9c-0.1-0.1-0.2-0.2-0.2-0.3c-0.1-0.1-0.1-0.3-0.1-0.4v-11.8c0-0.1,0-0.2,0.1-0.3
				c0.1-0.1,0.2-0.1,0.2,0l1.2,0.7c0.1,0.1,0.3,0.2,0.3,0.4c0.1,0.1,0.1,0.2,0.2,0.4l2.7,7.8v-6.2c0-0.1,0-0.2,0.1-0.3
				c0.1-0.1,0.2-0.1,0.2,0l1.6,0.9c0.1,0.1,0.2,0.2,0.2,0.3c0.1,0.1,0.1,0.3,0.1,0.4v11.8c0,0.1,0,0.2-0.1,0.3
				c-0.1,0.1-0.2,0.1-0.2,0L147.8,334.2z"/>
		</g>
	</g>
	<g id="freepik--Blackboard--inject-164">
		<g id="freepik--Balloons--inject-164">
			<path class="st13" d="M219.7,349.4c-1,2.8-2,5.8-1.9,8.8c0,1.5,0.3,3,0.3,4.5c0,1.6-0.2,3.3-0.7,4.8c-0.9,3-2.5,5.6-2.8,8.8
				s0.3,6.3-0.6,9.3c-0.5,1.8-1.6,3-2.5,4.6c-0.7,1.3-1,2.8-1.1,4.3c0,0.3,0.4,0.3,0.4,0.1c0-1.4,0.4-2.8,1-4.1
				c0.9-1.2,1.6-2.5,2.3-3.8c1.1-2.8,0.7-5.9,0.8-8.9c0.1-1.6,0.3-3.2,0.9-4.7c0.5-1.5,1.1-2.9,1.7-4.3c1-2.8,1.3-5.8,0.9-8.8
				c-0.2-1.7-0.2-3.4,0.1-5.1c0.4-1.8,0.9-3.6,1.4-5.4C219.9,349.4,219.7,349.3,219.7,349.4L219.7,349.4z"/>
			<path class="st5" d="M221.2,350.4L221.2,350.4c-0.1-1.1-0.5-2.2-1.2-3.1c-1,0.6-1.8,1.4-2.3,2.4l0,0c0,0.3,0.1,0.6,0.4,0.8
				c0.7,0.6,1.6,0.7,2.5,0.5C220.9,350.9,221.2,350.7,221.2,350.4L221.2,350.4z"/>
			<path class="st25" d="M221.2,350.4L221.2,350.4c-0.1-1.1-0.5-2.2-1.2-3.1c-1,0.6-1.8,1.4-2.3,2.4l0,0c0,0.3,0.1,0.6,0.4,0.8
				c0.7,0.6,1.6,0.7,2.5,0.5C220.9,350.9,221.2,350.7,221.2,350.4L221.2,350.4z"/>
			<path class="st5" d="M233,336c-1.2,5.7-7.1,11.9-13.2,12c-5.5-2.9-8.5-10.6-7.3-16.3s5.9-10.1,12.5-8.7S234.2,330.4,233,336z"/>
			<path class="st12" d="M233,336c-1.2,5.7-7.1,11.9-13.2,12c-5.5-2.9-8.5-10.6-7.3-16.3s5.9-10.1,12.5-8.7S234.2,330.4,233,336z"/>
			<path class="st8" d="M212.3,334.8c0,0,0.4,5.8,7,7.6c6.4,1.8,13.1-4.3,13.9-9c0,0.9-0.1,1.7-0.2,2.6c-1.2,5.7-7.1,11.9-13.2,12
				C215.3,345.6,212.4,339.9,212.3,334.8L212.3,334.8z"/>
			<path class="st13" d="M199,360.7c0,2.4,0.7,4.8,1.9,6.9c0.7,1.1,1.4,2.3,2,3.5c0.6,1.2,0.9,2.6,1,4c0.1,1.4-0.1,2.7,0.1,4
				c0.2,1.2,0.6,2.3,1.2,3.4c0.6,1.1,1.3,2.1,1.8,3.1c0.6,1.1,0.9,2.3,1.1,3.5c0.4,2.6,0.1,5.4,1.5,7.8c0.1,0.2,0.6,0.1,0.4-0.1
				c-1.2-2.2-1.1-4.7-1.4-7.1c-0.1-1.1-0.4-2.2-0.8-3.3c-0.5-1.1-1.1-2.2-1.8-3.2c-0.7-1.1-1.2-2.2-1.5-3.5c-0.2-1.3-0.3-2.7-0.2-4
				c0-1.3-0.2-2.5-0.6-3.7c-0.5-1.2-1-2.3-1.7-3.3c-0.9-1.2-1.6-2.6-2.1-4c-0.4-1.3-0.7-2.6-0.8-4C199.2,360.6,199,360.5,199,360.7
				L199,360.7z"/>
			<path class="st13" d="M198.6,361.9c0.2,0.9-0.5,1.8-1.4,2c0,0-0.1,0-0.1,0c-0.2,0-0.4,0-0.6-0.1c-0.2-0.1-0.5-0.3-0.4-0.5
				s0.6-0.2,0.8-0.1c0.2,0.1,0.4,0.3,0.5,0.6c0.3,0.7,0.1,1.5-0.6,1.8c-0.1,0-0.2,0.1-0.3,0.1c-0.4,0.1-0.8-0.1-1-0.4
				c-0.1-0.1-0.1-0.3-0.1-0.5c0.1-0.3,0.5-0.1,0.6,0c0.4,0.3,0.4,0.9,0.2,1.3c-0.3,0.4-0.7,0.5-1.1,0.5c-0.2,0-0.1,0.2,0,0.2
				c0.5,0.2,1.1-0.1,1.4-0.5c0.3-0.5,0.2-1.1-0.2-1.5c-0.3-0.4-1.2-0.7-1.3,0c-0.1,0.6,0.5,1,1,1.1c0.6,0.2,1.2,0,1.6-0.5
				c0.3-0.5,0.4-1.1,0.2-1.7c-0.3-0.6-0.9-1-1.5-0.9c-0.3,0-0.5,0.2-0.5,0.5c0,0,0,0,0,0c0,0.3,0.2,0.6,0.5,0.7
				c0.6,0.4,1.4,0.3,2-0.1c0.6-0.5,0.8-1.2,0.6-1.9C198.8,361.8,198.6,361.7,198.6,361.9L198.6,361.9z"/>
			<path class="st5" d="M200.9,361.2L200.9,361.2c-0.5-1-1.3-1.9-2.3-2.5c-0.7,0.9-1.1,2-1.2,3.1l0,0c0.1,0.3,0.3,0.5,0.6,0.6
				c0.9,0.3,1.8,0.1,2.5-0.4C200.7,361.9,200.9,361.6,200.9,361.2z"/>
			<path class="st6" d="M200.9,361.2L200.9,361.2c-0.5-1-1.3-1.9-2.3-2.5c-0.7,0.9-1.1,2-1.2,3.1l0,0c0.1,0.3,0.3,0.5,0.6,0.6
				c0.9,0.3,1.8,0.1,2.5-0.4C200.7,361.9,200.9,361.6,200.9,361.2z"/>
			<path class="st5" d="M206.4,343.6c1,5.7-2.2,13.7-7.8,16.1c-6.2-0.6-11.8-6.7-12.9-12.4s1.7-11.7,8.3-12.9
				S205.4,337.9,206.4,343.6z"/>
			<path class="st12" d="M206.4,343.6c1,5.7-2.2,13.7-7.8,16.1c-6.2-0.6-11.8-6.7-12.9-12.4s1.7-11.7,8.3-12.9
				S205.4,337.9,206.4,343.6z"/>
			<path class="st8" d="M186.8,350.1c0,0,2.5,5.2,9.4,4.4c6.6-0.8,10.6-8.9,9.6-13.5c0.3,0.8,0.6,1.7,0.7,2.5
				c1,5.7-2.2,13.7-7.8,16.1C193.6,359.2,188.8,354.9,186.8,350.1L186.8,350.1z"/>
			<path class="st13" d="M210.7,367.4c-0.2,1-0.7,2-0.9,3c-0.2,1.3-0.3,2.6-0.1,3.8c0.2,2.5,0.9,4.9,1,7.4s-0.6,5.1-0.9,7.6
				c-0.2,1.2-0.2,2.4-0.1,3.6c0,1.1,0.2,2.2,0.5,3.3c0.1,0.2,0.5,0.1,0.4-0.1c-0.4-1.1-0.6-2.2-0.5-3.4c-0.1-1.3,0-2.5,0.2-3.8
				c0.5-2.3,0.8-4.7,0.9-7.1c-0.1-2.4-0.7-4.8-1-7.2c-0.2-1.2-0.2-2.4-0.1-3.6c0.1-1.2,0.6-2.3,0.8-3.5
				C210.9,367.4,210.7,367.2,210.7,367.4L210.7,367.4z"/>
			<path class="st13" d="M209.5,368.2c0.3,0.8,0,1.7-0.7,2.2c-0.4,0.2-0.8,0.2-1.2,0c-0.1-0.1-0.3-0.2-0.2-0.4s0.2-0.2,0.3-0.2
				c0.1,0,0.1,0,0.2,0c0.3,0,0.6,0.1,0.8,0.3c0.5,0.5,0.5,1.4,0,2c-0.1,0.1-0.1,0.1-0.2,0.2c-0.3,0.2-0.8,0.2-1.1,0
				c-0.2-0.1-0.3-0.2-0.4-0.4c-0.1-0.4,0.4-0.3,0.6-0.2c0.4,0.2,0.6,0.7,0.5,1.2c-0.2,0.4-0.6,0.7-1,0.7c-0.1,0,0,0.2,0.1,0.3
				c0.6,0,1.2-0.4,1.3-1c0.1-0.6-0.2-1.1-0.7-1.4c-0.4-0.2-1.1-0.3-1.1,0.4s0.6,0.9,1.1,0.9c0.9,0,1.6-0.7,1.6-1.5
				c0-0.3-0.1-0.7-0.3-0.9c-0.4-0.6-1.1-0.8-1.8-0.6c-0.2,0.1-0.4,0.4-0.3,0.6c0.1,0.3,0.4,0.5,0.7,0.6c0.7,0.2,1.4,0,1.9-0.6
				c0.4-0.6,0.5-1.4,0.1-2C209.7,368,209.5,368,209.5,368.2L209.5,368.2z"/>
			<path class="st4" d="M212.5,368.4L212.5,368.4c-0.3-1.1-0.9-2.1-1.8-2.9c-0.9,0.7-1.5,1.7-1.8,2.8l0,0c0,0.3,0.2,0.6,0.5,0.8
				c0.8,0.4,1.7,0.5,2.5,0.1C212.2,369,212.4,368.7,212.5,368.4z"/>
			<path class="st3" d="M221.7,352.4c-0.2,5.8-5,12.9-11,14.1c-5.9-1.9-10.1-9.1-9.9-14.9s4.1-11,10.9-10.8S221.9,346.6,221.7,352.4
				z"/>
			<path class="st4" d="M201.1,354.6c0,0,1.4,5.6,8.2,6.3c6.6,0.7,12.3-6.4,12.2-11.2c0.1,0.9,0.2,1.8,0.2,2.6
				c-0.2,5.8-5,12.9-11,14.1C205.8,364.8,202.1,359.6,201.1,354.6L201.1,354.6z"/>
		</g>
		<g id="freepik--blackboard--inject-164">
			<g id="freepik--Barrier--inject-164">
				<path class="st5" d="M227.5,425.1l-2.4,1.4c-0.3,0.1-0.6,0.1-0.9,0l-0.8-0.4c-0.2-0.2-0.4-0.5-0.3-0.8l8-37.8
					c0.1-0.3,0.3-0.6,0.5-0.8l2.4-1.4c0.3-0.1,0.6-0.1,0.9,0l0.8,0.5c0.3,0.2,0.4,0.4,0.3,0.7l-8,37.8
					C228,424.7,227.8,424.9,227.5,425.1z"/>
				<path class="st12" d="M227.5,425.1l-2.4,1.4c-0.3,0.1-0.6,0.1-0.9,0l-0.8-0.4c-0.2-0.2-0.4-0.5-0.3-0.8l8-37.8
					c0.1-0.3,0.3-0.6,0.5-0.8l2.4-1.4c0.3-0.1,0.6-0.1,0.9,0l0.8,0.5c0.3,0.2,0.4,0.4,0.3,0.7l-8,37.8
					C228,424.7,227.8,424.9,227.5,425.1z"/>
				<path class="st5" d="M227.5,425.1l-2.4,1.4c-0.2,0.1-0.4,0-0.3-0.2l8-37.8c0.1-0.3,0.3-0.6,0.5-0.7l2.4-1.4
					c0.2-0.1,0.4,0,0.3,0.2l-8,37.8C227.9,424.7,227.8,424.9,227.5,425.1z"/>
				<path class="st24" d="M227.5,425.1l-2.4,1.4c-0.2,0.1-0.4,0-0.3-0.2l8-37.8c0.1-0.3,0.3-0.6,0.5-0.7l2.4-1.4
					c0.2-0.1,0.4,0,0.3,0.2l-8,37.8C227.9,424.7,227.8,424.9,227.5,425.1z"/>
				<polygon class="st5" points="226.2,422.6 226.9,419.3 228.6,418.3 243.7,427.1 244.4,431.3 242.8,432.2 				"/>
				<polygon class="st18" points="226.2,422.6 226.9,419.3 228.6,418.3 243.7,427.1 244.4,431.3 242.8,432.2 				"/>
				<polygon class="st5" points="242.8,432.2 226.2,422.6 226.9,419.3 242.1,428 				"/>
				<polygon class="st12" points="242.8,432.2 226.2,422.6 226.9,419.3 242.1,428 				"/>
				<path class="st4" d="M245.5,435.5l-2.4,1.4c-0.3,0.1-0.6,0.1-0.9,0l-0.8-0.4c-0.3-0.2-0.5-0.4-0.5-0.8l-8-47.2
					c0-0.3,0.1-0.6,0.4-0.7l2.4-1.4c0.3-0.1,0.6-0.1,0.9,0l0.8,0.4c0.3,0.2,0.5,0.4,0.5,0.8l8,47.2
					C245.9,435.1,245.8,435.3,245.5,435.5z"/>
				<path class="st5" d="M232.9,388.5l0.3,1.8l7.7,45.4c0.1,0.3,0.3,0.6,0.5,0.8l0.8,0.4c0.3,0.1,0.6,0.1,0.9,0l2.4-1.4
					c0.2-0.2,0.4-0.5,0.4-0.8l-8-47v-0.2c-0.1-0.3-0.3-0.6-0.5-0.8l-0.8-0.4c-0.3-0.1-0.6-0.1-0.9,0l-2.4,1.4
					C233,387.9,232.9,388.2,232.9,388.5z"/>
				<path class="st26" d="M232.9,388.5l0.3,1.8l7.7,45.4c0.1,0.3,0.3,0.6,0.5,0.8l0.8,0.4c0.3,0.1,0.6,0.1,0.9,0l2.4-1.4
					c0.2-0.2,0.4-0.5,0.4-0.8l-8-47v-0.2c-0.1-0.3-0.3-0.6-0.5-0.8l-0.8-0.4c-0.3-0.1-0.6-0.1-0.9,0l-2.4,1.4
					C233,387.9,232.9,388.2,232.9,388.5z"/>
				<path class="st5" d="M237.8,387.6l8,47.2c0,0.3-0.1,0.6-0.4,0.7l-2.4,1.4c-0.1,0.1-0.4,0.1-0.5-0.1c0,0-0.1-0.1-0.1-0.2l-8-47.2
					c0-0.3,0.1-0.6,0.4-0.8l2.4-1.4c0.2-0.1,0.4-0.1,0.5,0.1C237.8,387.5,237.8,387.5,237.8,387.6z"/>
				<path class="st12" d="M237.8,387.6l8,47.2c0,0.3-0.1,0.6-0.4,0.7l-2.4,1.4c-0.1,0.1-0.4,0.1-0.5-0.1c0,0-0.1-0.1-0.1-0.2
					l-8-47.2c0-0.3,0.1-0.6,0.4-0.8l2.4-1.4c0.2-0.1,0.4-0.1,0.5,0.1C237.8,387.5,237.8,387.5,237.8,387.6z"/>
				<path class="st5" d="M204.8,438.2l-2.4,1.4c-0.3,0.1-0.6,0.1-0.9,0l-0.8-0.4c-0.2-0.2-0.4-0.5-0.3-0.8l8-37.8
					c0.1-0.3,0.3-0.6,0.5-0.8l2.4-1.4c0.3-0.1,0.6-0.1,0.9,0l0.8,0.4c0.2,0.2,0.4,0.4,0.3,0.7l-8,37.8
					C205.3,437.8,205.1,438,204.8,438.2z"/>
				<path class="st12" d="M204.8,438.2l-2.4,1.4c-0.3,0.1-0.6,0.1-0.9,0l-0.8-0.4c-0.2-0.2-0.4-0.5-0.3-0.8l8-37.8
					c0.1-0.3,0.3-0.6,0.5-0.8l2.4-1.4c0.3-0.1,0.6-0.1,0.9,0l0.8,0.4c0.2,0.2,0.4,0.4,0.3,0.7l-8,37.8
					C205.3,437.8,205.1,438,204.8,438.2z"/>
				<path class="st5" d="M204.8,438.2l-2.4,1.4c-0.3,0.1-0.4,0-0.3-0.2l8-37.8c0.1-0.3,0.3-0.6,0.5-0.7l2.4-1.4
					c0.2-0.1,0.4,0,0.3,0.2l-8,37.8C205.3,437.8,205.1,438,204.8,438.2z"/>
				<path class="st24" d="M204.8,438.2l-2.4,1.4c-0.3,0.1-0.4,0-0.3-0.2l8-37.8c0.1-0.3,0.3-0.6,0.5-0.7l2.4-1.4
					c0.2-0.1,0.4,0,0.3,0.2l-8,37.8C205.3,437.8,205.1,438,204.8,438.2z"/>
				<polygon class="st5" points="203.5,435.8 204.2,432.4 205.9,431.5 221,440.2 221.7,444.4 220.1,445.4 				"/>
				<polygon class="st18" points="203.5,435.8 204.2,432.4 205.9,431.5 221,440.2 221.7,444.4 220.1,445.4 				"/>
				<polygon class="st5" points="220.1,445.4 203.5,435.8 204.2,432.4 219.4,441.2 				"/>
				<polygon class="st12" points="220.1,445.4 203.5,435.8 204.2,432.4 219.4,441.2 				"/>
				<path class="st4" d="M222.8,448.6l-2.4,1.4c-0.3,0.1-0.6,0.1-0.9,0l-0.8-0.4c-0.3-0.2-0.5-0.4-0.5-0.8l-8-47.2
					c0-0.3,0.1-0.6,0.4-0.8l2.4-1.4c0.3-0.1,0.6-0.1,0.9,0l0.8,0.4c0.3,0.2,0.4,0.4,0.5,0.8l8,47.2
					C223.2,448.1,223.1,448.4,222.8,448.6z"/>
				<path class="st5" d="M210.3,401.6l0.3,1.8l7.7,45.4c0.1,0.3,0.3,0.6,0.5,0.8l0.8,0.4c0.3,0.1,0.6,0.1,0.9,0l2.4-1.4
					c0.3-0.2,0.4-0.5,0.4-0.8l-8-47v-0.2c-0.1-0.3-0.3-0.6-0.5-0.8l-0.8-0.4c-0.3-0.1-0.6-0.1-0.9,0l-2.4,1.4
					C210.4,401,210.3,401.3,210.3,401.6z"/>
				<path class="st26" d="M210.3,401.6l0.3,1.8l7.7,45.4c0.1,0.3,0.3,0.6,0.5,0.8l0.8,0.4c0.3,0.1,0.6,0.1,0.9,0l2.4-1.4
					c0.3-0.2,0.4-0.5,0.4-0.8l-8-47v-0.2c-0.1-0.3-0.3-0.6-0.5-0.8l-0.8-0.4c-0.3-0.1-0.6-0.1-0.9,0l-2.4,1.4
					C210.4,401,210.3,401.3,210.3,401.6z"/>
				<path class="st5" d="M215.2,400.6l8,47.2c0,0.3-0.1,0.6-0.4,0.8l-2.4,1.4c-0.1,0.1-0.4,0.1-0.5-0.1c0,0-0.1-0.1-0.1-0.2l-8-47.2
					c0-0.3,0.1-0.6,0.4-0.8l2.4-1.4c0.2-0.1,0.4-0.1,0.5,0.1C215.2,400.5,215.2,400.6,215.2,400.6z"/>
				<path class="st12" d="M215.2,400.6l8,47.2c0,0.3-0.1,0.6-0.4,0.8l-2.4,1.4c-0.1,0.1-0.4,0.1-0.5-0.1c0,0-0.1-0.1-0.1-0.2
					l-8-47.2c0-0.3,0.1-0.6,0.4-0.8l2.4-1.4c0.2-0.1,0.4-0.1,0.5,0.1C215.2,400.5,215.2,400.6,215.2,400.6z"/>
				<polygon class="st4" points="207.3,395.8 238.8,377.6 238,377.1 206.5,395.3 				"/>
				<polygon class="st3" points="207.3,395.8 215.5,445.1 247.1,426.9 238.8,377.6 				"/>
				<polygon class="st2" points="206.5,395.3 214.7,444.6 215.5,445.1 207.3,395.8 				"/>
			</g>
			<path class="st13" d="M214.7,406.2l0.8-0.5c0.8-0.4,1.2-0.3,1.3,0.6c0.1,0.8-0.2,1.7-0.9,2.1l1,1.6l-0.2,0.1l-1-1.5l-0.8,0.5
				l0.1,2.1l-0.2,0.1L214.7,406.2z M215.6,408.4c0.7-0.4,1.2-1.2,1-2c-0.1-0.7-0.4-0.8-1.1-0.4l-0.6,0.4l0.1,2.4L215.6,408.4z"/>
			<path class="st13" d="M219.5,407.8c-0.1,0.6-0.5,1.1-1,1.4c-0.6,0.4-1,0.1-1.2-0.8c-0.2-0.9,0.1-1.8,0.8-2.4
				c0.4-0.2,0.6-0.1,0.7,0.4c0,0.9-0.5,1.7-1.3,2c0.1,0.7,0.4,0.9,1,0.6c0.4-0.3,0.8-0.7,0.9-1.2L219.5,407.8z M217.5,408.1
				c0.7-0.3,1.1-0.9,1.1-1.7c0-0.3-0.2-0.4-0.5-0.3C217.6,406.7,217.3,407.4,217.5,408.1L217.5,408.1z"/>
			<path class="st13" d="M219.6,406.2l1.3-0.7v0.3l-1.3,0.7L219.6,406.2z"/>
			<path class="st13" d="M224.1,405.1c-0.1,0.4-0.3,0.9-0.7,1.1c-0.1,0.1-0.3,0.1-0.4,0c-0.1,0.3-0.3,0.5-0.6,0.6
				c-0.5,0.3-0.8,0-0.9-0.8c-0.2-1,0.1-2,0.9-2.6c0.5-0.3,0.8,0,0.9,0.8c0.1,0.6,0,1.2-0.2,1.7c0.1,0.1,0.2,0.1,0.3,0
				c0.3-0.2,0.5-0.6,0.6-1L224.1,405.1z M223.1,404.4c-0.1-0.7-0.3-0.9-0.7-0.7c-0.6,0.6-0.9,1.4-0.7,2.3c0.1,0.7,0.4,0.9,0.7,0.7
				C223,406.1,223.3,405.2,223.1,404.4z"/>
			<path class="st13" d="M224,402.6l0.2-0.1v0.6c0.1-0.4,0.4-0.8,0.8-1.1c0.4-0.3,0.7,0,0.7,0.8c0.1,0.6,0,1.2-0.2,1.8
				c0.1,0.1,0.2,0.1,0.3,0c0.3-0.3,0.5-0.6,0.6-1l0.1,0.1c-0.1,0.4-0.3,0.9-0.7,1.1c-0.1,0.1-0.3,0.1-0.4,0
				c-0.1,0.3-0.4,0.5-0.6,0.7c-0.2,0.1-0.4,0.2-0.6,0.1l0.1,1.6l-0.2,0.1L224,402.6z M225.6,402.9c-0.1-0.7-0.2-0.9-0.6-0.7
				c-0.4,0.3-0.7,0.7-0.8,1.2l0.1,2c0.2,0,0.4,0,0.5-0.1C225.5,404.7,225.7,403.8,225.6,402.9L225.6,402.9z"/>
			<path class="st13" d="M228.5,402.6c-0.1,0.6-0.5,1.1-1,1.4c-0.6,0.4-1,0.1-1.2-0.8c-0.2-0.9,0.1-1.8,0.8-2.4
				c0.4-0.2,0.6-0.1,0.7,0.4c0,0.9-0.5,1.7-1.3,2c0.1,0.7,0.5,0.9,1,0.6c0.4-0.3,0.8-0.7,0.9-1.2L228.5,402.6z M226.5,402.9
				c0.7-0.3,1.1-0.9,1.1-1.7c0-0.3-0.2-0.4-0.5-0.2C226.6,401.5,226.4,402.2,226.5,402.9L226.5,402.9z"/>
			<path class="st13" d="M231.1,401.1c-0.1,0.5-0.3,0.9-0.6,1.2c-0.3,0.2-0.4-0.1-0.4-0.7v-1.4c0-0.5-0.2-0.8-0.5-0.6
				c-0.4,0.3-0.7,0.7-0.8,1.2l0.1,2.4l-0.2,0.1l-0.1-3.3l0.2-0.1v0.6c0.2-0.5,0.5-0.9,0.9-1.1c0.4-0.3,0.6,0,0.7,0.6v1.4
				c0,0.6,0.1,0.7,0.3,0.6c0.3-0.3,0.5-0.6,0.5-1L231.1,401.1z"/>
			<path class="st13" d="M230.8,397.7c0-0.1,0-0.3,0.1-0.4c0.1,0,0.2,0,0.2,0.1c0,0.1,0,0.3-0.1,0.4
				C230.9,397.9,230.8,397.8,230.8,397.7z M232.2,400.4c-0.1,0.5-0.3,0.9-0.7,1.2c-0.3,0.2-0.5,0-0.5-0.7l-0.1-2.3l0.2-0.1l0.1,2.3
				c0,0.6,0.2,0.7,0.4,0.6c0.3-0.3,0.5-0.6,0.6-1.1L232.2,400.4z"/>
			<path class="st13" d="M234.8,399c-0.1,0.5-0.3,0.9-0.6,1.2c-0.3,0.1-0.4-0.1-0.4-0.7v-1.4c0-0.5-0.2-0.8-0.5-0.6
				c-0.4,0.3-0.7,0.7-0.9,1.2l0.1,2.4l-0.2,0.1l-0.1-3.3l0.2-0.1v0.6c0.2-0.5,0.5-0.9,0.9-1.1c0.4-0.3,0.6,0,0.7,0.6v1.4
				c0,0.6,0.1,0.7,0.3,0.6c0.3-0.3,0.5-0.6,0.5-1L234.8,399z"/>
			<path class="st13" d="M235,401v-0.3c0.2,0,0.4-0.1,0.6-0.2c0.5-0.4,0.7-1,0.6-1.7c0-0.2,0-0.4,0-0.6c-0.1,0.4-0.4,0.8-0.7,1.1
				c-0.4,0.3-0.7,0-0.8-0.8c-0.2-1,0.2-2.1,1-2.7c0.2-0.1,0.3-0.2,0.5-0.3l0.2-0.1l0.1,3.4c0.4-0.4,0.6-0.9,0.8-1.5l0.1,0.1
				c-0.1,0.6-0.4,1.2-0.9,1.6c0,0.7-0.3,1.3-0.8,1.7C235.4,400.9,235.2,401,235,401z M236.2,398l-0.1-2.1c-0.2,0.1-0.3,0.1-0.5,0.2
				c-0.7,0.6-1,1.5-0.8,2.3c0.1,0.7,0.3,0.9,0.6,0.7C235.8,398.9,236.1,398.5,236.2,398z"/>
			<path class="st13" d="M219.1,417.4l0.2-0.3c0.3,0.4,0.9,0.4,1.3,0.1c0.7-0.4,1.1-1.3,1-2.1c-0.1-0.8-0.5-0.9-1.3-0.9
				s-1.3-0.3-1.4-1.1c-0.2-0.9,0.3-1.9,1.1-2.4c0.4-0.3,0.9-0.2,1.3,0.1l-0.2,0.3c-0.3-0.3-0.8-0.3-1.1-0.1c-0.7,0.4-1,1.1-0.9,1.8
				c0.1,0.8,0.6,0.9,1.3,0.9s1.2,0.2,1.3,1.1c0.2,1-0.3,2.1-1.3,2.6C220.2,417.9,219.5,417.8,219.1,417.4z"/>
			<path class="st13" d="M222.6,413.6c-0.3-2.3,0.3-4.5,1.6-5.2c1-0.5,1.5,0.1,1.8,1.8c0.3,2.3-0.3,4.5-1.6,5.2
				C223.5,415.9,222.9,415.3,222.6,413.6z M225.7,410.3c-0.2-1.5-0.7-2-1.5-1.6c-1.1,0.6-1.6,2.6-1.3,4.7c0.2,1.5,0.7,2,1.5,1.6
				C225.5,414.4,226,412.4,225.7,410.3z"/>
			<path class="st13" d="M226.9,411.1c-0.3-2.3,0.3-4.5,1.6-5.2c0.9-0.5,1.5,0.1,1.8,1.8c0.3,2.3-0.3,4.5-1.6,5.2
				C227.8,413.4,227.2,412.8,226.9,411.1z M230,407.8c-0.2-1.5-0.7-2-1.5-1.6c-1.1,0.6-1.6,2.6-1.3,4.7c0.2,1.5,0.7,2,1.5,1.6
				C229.8,411.9,230.3,409.9,230,407.8L230,407.8z"/>
			<path class="st13" d="M231.4,404.3l0.3-0.2l2.3,3.9l0.5,0.9l0,0v-1.1l-0.2-5.2l0.3-0.2l0.2,6.9l-0.3,0.2l-2.4-4.1l-0.4-0.7l0,0
				v1.2l0.2,5.1l-0.3,0.1L231.4,404.3z"/>
			<path class="st5" d="M211.1,402.4c-0.3,0.1-0.5,0-0.5-0.4c-0.1-0.3,0.1-0.7,0.3-0.9c0.3-0.1,0.5,0,0.5,0.4
				C211.5,401.8,211.4,402.2,211.1,402.4z"/>
			<path class="st5" d="M213.8,398c0-0.2,0.1-0.3,0.2-0.5l0.1-0.1l0.2,1.2l-0.2,0.1c0,0-0.4-1-0.9-0.6c-0.4,0.2-0.6,0.9-0.4,2.5
				s0.6,1.9,1.1,1.6c0.5-0.4,0.7-1,0.6-1.6l0.1-0.1c0.1,0.7-0.2,1.5-0.8,1.9c-0.9,0.5-1.6,0-1.8-1.4c-0.3-1.1,0.1-2.3,1-3.1
				C213.2,397.8,213.5,397.8,213.8,398z"/>
			<path class="st5" d="M217.2,398.7c0.2,0.9-0.2,1.8-0.9,2.3c-0.7,0.4-1.2,0-1.4-1c-0.2-0.9,0.2-1.8,0.9-2.3
				C216.5,397.3,217,397.7,217.2,398.7z M216.4,399.1c-0.2-1.2-0.4-1.4-0.6-1.3s-0.4,0.5-0.2,1.8s0.4,1.4,0.6,1.3
				S216.6,400.4,216.4,399.1L216.4,399.1z"/>
			<path class="st5" d="M217.3,397.3v-0.2l0.3-0.2l-0.1-0.3c-0.1-0.7,0.2-1.3,0.8-1.7c0.5-0.3,0.8-0.1,0.8,0.3
				c0.1,0.2,0,0.5-0.3,0.6c-0.1,0-0.1,0.1-0.2,0.1l-0.1-1c0,0-0.1,0-0.1,0c-0.2,0.1-0.3,0.4-0.2,1.2v0.3l0.7-0.4v0.2l-0.7,0.4
				l0.4,2.6l0.3-0.1v0.1l-1.2,0.7v0l0.2-0.2l-0.4-2.6L217.3,397.3z"/>
			<path class="st5" d="M219.2,396.2V396l0.3-0.2v-0.3c-0.1-0.7,0.2-1.3,0.8-1.7c0.5-0.3,0.8-0.1,0.8,0.3c0.1,0.2-0.1,0.5-0.3,0.6
				c-0.1,0-0.1,0.1-0.2,0.1l-0.1-1c0,0-0.1,0-0.1,0c-0.2,0.1-0.3,0.4-0.2,1.2v0.3l0.7-0.4v0.2l-0.7,0.4l0.4,2.6l0.3-0.1v0.1
				l-1.2,0.7v-0.1l0.2-0.3l-0.4-2.6L219.2,396.2z"/>
			<path class="st5" d="M221.3,396.4c-0.2-0.9,0.1-1.7,0.8-2.3c0.6-0.4,1.1,0,1.2,0.6c0,0.1,0,0.3,0,0.4c-0.4,0.4-0.8,0.7-1.3,1
				c0.1,1,0.4,1.2,0.7,1c0.4-0.3,0.6-0.7,0.5-1.2l0.1-0.1c0.1,0.6-0.2,1.1-0.7,1.4C222,397.7,221.4,397.4,221.3,396.4z M222.6,395.5
				c0-0.2,0-0.3,0-0.5c-0.1-0.8-0.3-0.9-0.5-0.8s-0.3,0.4-0.1,1.7C222.3,395.8,222.5,395.7,222.6,395.5L222.6,395.5z"/>
			<path class="st5" d="M223.8,394.9c-0.2-0.9,0.1-1.7,0.8-2.3c0.7-0.4,1.1,0,1.2,0.6c0,0.1,0,0.3,0,0.4c-0.4,0.4-0.8,0.7-1.3,1
				c0.1,1,0.4,1.2,0.7,1c0.4-0.3,0.6-0.7,0.5-1.2l0.1-0.1c0.1,0.6-0.2,1.1-0.7,1.4C224.4,396.3,223.9,395.9,223.8,394.9z
				 M225.1,394.1c0-0.2,0-0.3,0-0.5c-0.1-0.8-0.3-0.9-0.5-0.8s-0.3,0.4-0.1,1.7C224.7,394.4,224.9,394.2,225.1,394.1z"/>
			<path class="st5" d="M227.9,393.3c-0.1-1-1.7-0.1-1.9-1.6c0-0.7,0.3-1.4,1-1.7c0.2-0.1,0.5-0.1,0.8,0c0-0.2,0.1-0.3,0.2-0.5
				l0.1-0.1l0.2,1.2l-0.2,0.1c0,0-0.4-1-0.9-0.6c-0.3,0.2-0.4,0.6-0.3,0.9c0.1,1,1.7,0.2,1.9,1.6c0.1,0.8-0.3,1.5-1,1.9
				c-0.3,0.2-0.6,0.2-0.9,0c0,0.2-0.1,0.3-0.2,0.5l-0.1,0.1l-0.2-1.2l0.2-0.1c0,0,0.4,1,1,0.6C227.9,394.1,228.1,393.7,227.9,393.3z
				"/>
			<path class="st5" d="M230.5,390.4c-0.1-0.6-0.3-0.7-0.4-0.6s-0.3,0.7-0.3,0.7l0.3,2.3l0.3-0.1v0.1l-1.2,0.7v-0.1l0.3-0.3l-0.6-4
				l-0.3,0.1v-0.1l0.6-0.3c0.3-0.1,0.4,0,0.5,0.3l0.1,1c0.1-0.3,0.3-0.6,0.5-0.7c0.5-0.3,0.9,0,1,0.5l0.3,2l0.3,0v0.1l-0.6,0.3
				c-0.3,0.1-0.4,0-0.5-0.3L230.5,390.4z"/>
			<path class="st5" d="M234.2,388.9c0.2,0.9-0.2,1.8-0.9,2.3c-0.7,0.4-1.3,0-1.4-1c-0.2-0.9,0.2-1.8,0.9-2.3
				C233.5,387.5,234,387.9,234.2,388.9z M233.4,389.3c-0.2-1.2-0.4-1.4-0.6-1.3s-0.4,0.5-0.2,1.8s0.4,1.4,0.6,1.3
				S233.6,390.5,233.4,389.3L233.4,389.3z"/>
			<path class="st5" d="M234.6,387.2l-0.3,0.1v-0.1l0.4-0.2c0.2-0.1,0.4-0.1,0.5,0.1c0,0,0,0.1,0.1,0.1c0.1-0.4,0.3-0.7,0.6-0.9
				c0.5-0.3,1,0,1.1,1.1c0.3,0.8,0,1.7-0.7,2.2c-0.2,0.1-0.4,0.1-0.5,0l0.2,1.2l0.3,0v0.1l-1.2,0.7v-0.1l0.3-0.2L234.6,387.2z
				 M235.7,389.4c0.1,0.1,0.2,0.1,0.4,0.1c0.2-0.1,0.4-0.5,0.2-1.7s-0.4-1.3-0.5-1.2s-0.3,0.7-0.3,0.7L235.7,389.4z"/>
			<path class="st5" d="M237.9,386.9c-0.3,0.1-0.5,0-0.5-0.4c-0.1-0.3,0.1-0.7,0.3-0.9c0.3-0.1,0.5,0,0.5,0.4
				C238.3,386.4,238.2,386.7,237.9,386.9z"/>
			<path class="st5" d="M229.8,424.3c-0.6,0.1-1.2-0.1-1.7-0.5c-0.7-0.7-0.3-3.5-0.4-4.6c-0.2-1.6-1.2-1.5-1.2-1.5s1.7-0.5,2.2,0.7
				s0,3.1,0.1,4C228.8,423.1,229.2,423.9,229.8,424.3z"/>
			<path class="st5" d="M229.6,418.4c0.3,0.4,0.4,0.8,0.4,1.3c-0.1,1-0.6,2.4,0.3,3.2c-0.1-0.5,0-1.1,0.2-1.6
				c0.3-0.8,0.4-1.7,0.1-2.5C230.4,418.5,230,418.4,229.6,418.4z"/>
			<path class="st13" d="M235.5,422.9c-0.4-0.2-0.9-0.2-1.3,0.1l-0.1-0.5l-8.9,5.1c0,0.2,0,0.5,0.1,0.7c0.6,4,1.8,4.8,3.7,4.7l0,0
				l-0.3,0.1c-0.2,0.1-0.2,0.3-0.2,0.5c0,0.2,0.2,0.3,0.3,0.2l3.9-2.2c0.2-0.1,0.2-0.3,0.2-0.5c0-0.2-0.2-0.3-0.3-0.2l-0.3,0.1
				c0.7-0.8,1.2-1.6,1.6-2.6c0.1,0,0.2,0,0.3-0.1c0.4-0.2,0.7-0.5,0.9-0.9c0.7-0.9,1-2.1,1-3.2C236.1,423.8,235.9,423.3,235.5,422.9
				z M234.8,427.1c-0.2,0.3-0.4,0.5-0.7,0.6c0.3-1.3,0.4-2.7,0.2-4.1c0.2-0.2,0.7-0.4,1-0.2c0.3,0.3,0.4,0.6,0.4,1
				C235.6,425.4,235.3,426.4,234.8,427.1L234.8,427.1z"/>
		</g>
	</g>
	<g id="freepik--Clouds--inject-164">
		<g id="freepik--clouds--inject-164">
			<path class="st21" d="M99.8,55.5l-8.3,4.8c0-0.4,0.1-0.7,0.1-1.1v-2.4c0-4.3-3-6-6.7-3.9c-1.6,1-3,2.3-4,3.8
				c-0.6-5.4-4.8-7.4-9.9-4.4c-5.5,3.2-10,11-10,17.4v3.6c0,1.4,0.3,2.9,0.8,4.2l-6.9,4c-2.2,1.4-3.6,3.8-3.7,6.4
				c0,2.4,1.7,3.3,3.7,2.2l45-26c2.2-1.4,3.6-3.8,3.7-6.4C103.5,55.3,101.9,54.3,99.8,55.5z"/>
			<path class="st21" d="M133.3,73.6l-6.3,3.6c0-0.3,0.1-0.6,0.1-0.8v-1.8c0-3.2-2.3-4.5-5.1-2.9c-1.2,0.7-2.2,1.7-3,2.9
				c-0.4-4.1-3.6-5.6-7.5-3.3c-4.5,2.9-7.3,7.8-7.6,13.1v2.7c0,1.1,0.2,2.2,0.6,3.1l-5.2,3c-1.7,1.1-2.7,2.9-2.8,4.9
				c0,1.8,1.3,2.5,2.8,1.6l33.9-19.6c1.7-1.1,2.7-2.9,2.8-4.9C136.1,73.4,134.8,72.7,133.3,73.6z"/>
		</g>
	</g>
</g>
<g id="Capa_2">
	<g>
		<path class="st27" d="M380.1,130.3l-162.9,94.1c-1.4,0.8-3.3-0.2-3.3-1.9v-46.4c0-2.9,1.5-5.6,4-7L380.8,75
			c1.5-0.8,3.3,0.2,3.3,1.9v46.3C384.1,126.2,382.6,128.9,380.1,130.3z"/>
		<g id="Texto_de_perspectiva">
			<g>
				<path class="st5" d="M247.7,162c-0.1,0.9-0.2,1.8-0.2,2.8l0,2.9l-0.1,0.2l-0.8,0.5l-0.1-0.1c0-1.5-0.1-2.3-0.1-2.5
					c-0.1-0.4-0.4-0.5-0.8-0.3c-0.2,0.1-1,0.5-2.5,1.4l-1.8,1c0,0.4,0,2,0,4.9v9.9c0,2.8,0.1,4.5,0.2,5.3c0,0.3,0.2,0.4,0.5,0.4
					c0.1,0,0.6-0.3,1.5-0.7l0.1,0.1v1.2l-0.1,0.2c-0.9,0.4-2.2,1.2-4.1,2.2c-1.9,1.1-3.3,1.9-4.1,2.5l-0.1-0.1v-1.2l0.1-0.3
					c0.9-0.6,1.4-0.9,1.6-1.1c0.3-0.2,0.4-0.5,0.5-0.9c0.1-0.9,0.2-2.7,0.2-5.5v-9.9c0-2.9,0-4.5,0-4.8l-1.9,1.1
					c-1.6,0.9-2.5,1.5-2.8,1.8c-0.1,0.2-0.2,0.3-0.3,0.4c-0.1,0.2-0.1,0.6-0.2,1.2c-0.1,0.7-0.1,1.3-0.1,2l-0.1,0.3l-0.8,0.5
					l-0.1-0.1l0-3c0-0.8-0.1-1.7-0.2-2.5l0.1-0.2c0.5-0.2,2.4-1.2,5.7-3.1l5.4-3c3-1.7,4.9-2.8,5.7-3.4L247.7,162z"/>
				<path class="st5" d="M262.2,177.9l-0.1,0.2c-1.3,0.7-2.1,1.1-2.5,1.3c-0.3,0.2-0.7,0.4-1.3,0.8c-0.6,0.4-1,0.6-1.3,0.8L257,181
					c0.1-1,0.1-1.9,0.1-2.8c-0.5,0.7-1.2,2.1-2.4,4.2c-0.6,0.6-1.2,1.1-1.8,1.5c-1.2,0.7-2.1,0.8-2.8,0.3c-0.7-0.5-1-1.5-1-3.1
					c0-0.2,0-0.6,0-1.3c0-0.6,0-1.3,0-1.9v-2.2c0-2.3-0.1-3.6-0.2-3.9c-0.1-0.2-0.3-0.2-0.6-0.1c-0.1,0-0.5,0.2-1.2,0.6l-0.1-0.1v-1
					l0.1-0.3c1.7-1.1,3.4-2.6,5.1-4.3l0.3,0.1c-0.1,2-0.2,3.8-0.2,5.4v3.4c0,1.6,0,2.6,0.1,3.2c0.1,0.6,0.3,1,0.6,1.2
					c0.3,0.2,0.8,0.1,1.3-0.2c0.7-0.4,1.3-1,1.8-1.9c0.5-0.9,0.7-1.7,0.8-2.4c0-0.6,0-0.9,0-1.1v-3.1c0-2.3-0.1-3.5-0.2-3.9
					c-0.1-0.2-0.3-0.2-0.5-0.1c-0.1,0-0.5,0.2-1.2,0.6l-0.1-0.1v-1l0.1-0.3c1.7-1.1,3.3-2.6,5.1-4.3l0.3,0.1
					c-0.1,1.8-0.2,3.6-0.2,5.4v5.4c0,2.4,0.1,3.8,0.2,4c0.1,0.1,0.1,0.2,0.3,0.2c0.2,0,0.7-0.2,1.4-0.6l0.1,0.1V177.9z"/>
				<path class="st5" d="M290.6,138.9l-0.1,0.2c-0.9,0.6-1.4,0.9-1.5,1c-0.2,0.2-0.4,0.5-0.4,0.9c-0.1,0.9-0.2,2.7-0.2,5.4v6.9
					c0,5.1,0.1,8.4,0.2,9.9l-0.2,0.2c-1,0.3-1.7,0.6-2.2,0.8c-2.3-2.1-6.2-6.2-11.8-12.1v11.2c0,2.7,0.1,4.5,0.2,5.2
					c0,0.3,0.2,0.4,0.4,0.4c0.1,0,0.6-0.3,1.5-0.7l0.1,0.1v1.2l-0.1,0.2c-1,0.5-1.9,1-2.8,1.5c-1,0.6-2,1.2-3,1.8l-0.1-0.1v-1.2
					l0.1-0.2c0.9-0.6,1.4-0.9,1.5-1c0.2-0.2,0.4-0.5,0.4-0.9c0.1-0.9,0.2-2.7,0.2-5.4v-9.1c0-2.7-0.1-4.5-0.2-5.2
					c0-0.3-0.2-0.4-0.4-0.4c-0.1,0-0.6,0.3-1.5,0.7l-0.1-0.1V149l0.1-0.2c0.8-0.4,1.6-0.8,2.3-1.2c1.2-0.7,2.1-1.2,2.9-1.7
					c3.1,3.7,6.7,7.6,10.9,11.5v-10c0-2.7-0.1-4.4-0.2-5.2c0-0.3-0.2-0.4-0.4-0.4c-0.1,0-0.6,0.3-1.5,0.7l-0.1-0.1v-1.2l0.1-0.2
					c1-0.5,1.9-1,2.7-1.4c1.1-0.6,2.1-1.2,3-1.8l0.1,0.1V138.9z"/>
				<path class="st5" d="M303.5,144.7c0,0.2,0,0.5,0,0.9l-0.1,0.3c-1.1,1-2.6,2.1-4.4,3.1c-0.3,0.2-0.8,0.5-1.5,0.9
					c-0.7,0.4-1.2,0.7-1.5,0.9c0.1,1.6,0.4,2.8,1.2,3.5c0.8,0.7,1.7,0.8,2.9,0.1c0.8-0.5,1.8-1.4,2.9-2.8l0.3,0.3l-0.6,2
					c-1.2,1.8-2.6,3.1-4,3.9c-1.9,1.1-3.4,1.2-4.4,0.4c-1.1-0.8-1.6-2.6-1.6-5.3c0-3.2,0.6-5.7,1.7-7.5c1.6-2.5,3-4.1,4.4-4.9
					c1.5-0.9,2.7-0.9,3.5-0.2C303,141,303.5,142.5,303.5,144.7z M300.2,146.2c0-3.1-0.7-4.2-2.1-3.4c-1.5,0.9-2.2,2.8-2.2,5.8v0.4
					c0.5-0.2,1.4-0.6,2.6-1.3c0.6-0.4,1.2-0.8,1.7-1.2C300.2,146.4,300.2,146.3,300.2,146.2z"/>
				<path class="st5" d="M318.4,146.9c0,2.5-0.7,4.8-2,7.1c-1.4,2.3-3.1,4-5.4,5.3c-1.7,1-3.1,1.4-4.1,1.1c-1-0.3-1.5-1.2-1.5-2.7
					c0-1,0.2-1.8,0.5-2.5c0-0.1,0.5-0.7,1.3-1.9c0.4-0.6,0.7-1,0.9-1.2c-1.2,0.4-1.7,0-1.7-1.3c0-0.7,0.2-1.4,0.5-2.3
					c0-0.1,0.3-0.4,0.7-1.1c0.2-0.3,0.6-0.9,1.1-1.6c-1.8,0.2-2.7-1-2.7-3.3c0-1.8,0.5-3.6,1.5-5.3c1-1.7,2.4-3,4.1-4
					c1.6-0.9,2.9-1.2,3.8-0.7c0.5-0.3,0.9-0.4,1-0.5c0.4-0.3,1-0.6,1.8-1.1l0.1,0.1l-0.1,1.8l-0.1,0.2l-1.8,1.1
					c0.1,0.5,0.2,1,0.2,1.6c0,2.7-1,5.1-2.9,7.2c-0.9,0.9-1.7,1.6-2.6,2.1c-0.3,0.2-0.7,0.3-1.1,0.5c-0.5,0.7-0.8,1.3-0.8,2
					c0,0.6,0.3,0.7,0.9,0.5c0.4-0.2,0.9-0.5,1.8-0.9c0.3-0.1,0.7-0.4,1.4-0.8c0.6-0.4,1.1-0.7,1.4-0.9c1.9-1.1,3.1-1.2,3.5-0.3
					C318.3,145.2,318.4,145.9,318.4,146.9z M315.5,150.4c0-1.2-0.3-1.8-1-1.8c-0.3,0-0.8,0.3-1.6,0.7l-2.4,1.3
					c-0.3,0.2-0.6,0.4-1.1,0.7c-1.1,1.6-1.7,3.1-1.7,4.3c0,1.1,0.3,1.8,1,2.1c0.7,0.3,1.6,0.1,2.7-0.6c1.2-0.7,2.2-1.7,2.9-2.9
					C315.2,153.1,315.5,151.8,315.5,150.4z M313.2,138c0-2.8-0.7-3.9-2.1-3.1c-1.4,0.8-2.1,2.4-2.1,4.9c0,2.9,0.7,4,2.2,3.1
					C312.6,142.2,313.2,140.5,313.2,138z"/>
				<path class="st5" d="M331.8,129.7c0,4-1,7.2-2.9,9.7c-1,1.2-2.1,2.2-3.3,2.9c-1.9,1.1-3.4,1.2-4.4,0.3c-1-0.9-1.5-2.8-1.5-5.6
					c0-3.9,1-7,2.9-9.4c1-1.2,2.1-2.1,3.3-2.8c2.6-1.5,4.4-1.3,5.2,0.7C331.6,126.5,331.8,127.9,331.8,129.7z M328.3,133
					c0-2.8-0.2-4.7-0.7-5.6c-0.5-0.9-1.1-1.2-2.1-0.6c-1.6,0.9-2.5,3.4-2.5,7.5c0,5.2,0.9,7.2,2.8,6.2c1.1-0.7,1.9-1.9,2.2-3.8
					C328.3,135.6,328.3,134.4,328.3,133z"/>
				<path class="st5" d="M343.4,129.2l-0.5,2c-1.1,1.4-2.2,2.5-3.3,3.1c-1.8,1.1-3.2,1.1-4.2,0.3c-1-0.9-1.5-2.6-1.5-5.1
					c0-2.3,0.4-4.3,1.1-5.9c0.2-0.5,0.6-1.1,1.2-2c1.2-1.8,2-2.9,2.4-3.4c0.4-0.4,1-0.9,1.8-1.4c1.1-0.6,2-0.9,2.8-0.9l0.1,0.2
					c0,0.1-0.1,0.7-0.2,1.7l-0.1,1.2c0,0.2-0.1,1-0.1,2.3l-0.1,0.2L342,122l-0.1-0.1c0-1-0.1-1.6-0.2-2c-0.4-0.7-1.1-0.7-2.1-0.1
					c-1.7,1-2.6,3-2.6,6.1c0,2.2,0.3,3.8,1,4.7c0.7,0.9,1.7,1,3,0.3c0.8-0.5,1.5-1.1,2.1-1.9L343.4,129.2z"/>
				<path class="st5" d="M351.6,126.6l-0.1,0.2c-0.8,0.4-1.9,1-3.3,1.8c-1.5,0.8-2.6,1.5-3.3,2l-0.1-0.1v-1l0.1-0.2
					c0.8-0.5,1.3-0.8,1.5-1.1c0.2-0.2,0.3-0.5,0.3-1c0.1-1.5,0.1-3.1,0.1-4.7v-2.4c0-2.2-0.1-3.4-0.2-3.7c-0.1-0.2-0.2-0.2-0.5-0.1
					c-0.1,0-0.5,0.2-1.1,0.5l-0.1-0.1v-0.9l0.1-0.3c1.6-1.1,3.1-2.4,4.7-4.1l0.3,0.1c-0.1,2.1-0.2,3.8-0.2,5.2v5.3
					c0,0.8,0,1.9,0.1,3.3c0,0.4,0.1,0.6,0.3,0.6c0.2,0,0.7-0.2,1.4-0.6l0.1,0.1V126.6z M349.9,105.8c0,0.7-0.2,1.4-0.5,2.1
					c-0.4,0.7-0.8,1.2-1.3,1.5c-0.5,0.3-1,0.3-1.3,0c-0.4-0.3-0.5-0.8-0.5-1.5c0-0.7,0.2-1.5,0.6-2.2c0.4-0.7,0.8-1.2,1.3-1.5
					c0.5-0.3,0.9-0.3,1.3,0C349.7,104.5,349.9,105,349.9,105.8z"/>
				<path class="st5" d="M365,110.6c0,3.9-1,7.1-2.9,9.6c-0.9,1.2-2,2.2-3.2,2.9c-1.9,1.1-3.3,1.1-4.2,0.2c-1-0.9-1.5-2.8-1.5-5.5
					c0-3.8,0.9-6.9,2.8-9.2c0.9-1.1,2-2.1,3.2-2.8c2.6-1.5,4.3-1.2,5.1,0.8C364.8,107.5,365,108.9,365,110.6z M361.7,113.9
					c0-2.8-0.2-4.6-0.7-5.5c-0.4-0.9-1.1-1.2-2-0.6c-1.6,0.9-2.4,3.4-2.4,7.3c0,5.1,0.9,7.2,2.7,6.1c1.1-0.6,1.8-1.9,2.1-3.8
					C361.6,116.4,361.7,115.3,361.7,113.9z"/>
			</g>
		</g>
	</g>
	<polygon class="st3" points="321.1,150.1 303.3,160.3 223,206.3 223,209.6 303.5,163.5 321.2,153.3 303.2,163.6 303.3,160.3 
		321.2,150 321.2,153.3 375.6,122.1 375.6,118.8 	"/>
	<path class="st5" d="M226.2,191.4c-1.4,0.8-2.4-0.1-2.4-2.3c-0.1-2,0.8-3.8,2.4-5c1.4-0.8,2.4,0.1,2.4,2.3
		C228.6,188.4,227.7,190.3,226.2,191.4z"/>
	<path class="st5" d="M372.4,106.9c-1.4,0.8-2.4-0.1-2.4-2.3s1-4.2,2.4-5.1s2.4,0.1,2.4,2.3C374.9,103.9,374,105.8,372.4,106.9z"/>
</g>
</svg>
