<svg xmlns="http://www.w3.org/2000/svg" width="80" height="80" viewBox="0 0 80 80"><g transform="translate(501 83)"><g transform="translate(-501 -83)" fill="none" stroke="#fff" stroke-width="3"><circle cx="40" cy="40" r="40" stroke="none"/><circle cx="40" cy="40" r="38.5" fill="none"/></g><g transform="translate(-4.08 -4.933)"><path d="M10.6,14.425V12.513a2.867,2.867,0,0,1,0-5.735V5.823a.956.956,0,0,1,1.912,0v.956h.021a2.846,2.846,0,0,1,2.846,2.846.956.956,0,0,1-1.912,0,.935.935,0,0,0-.935-.935h-.021V10.6a2.867,2.867,0,0,1,0,5.735v.956a.956.956,0,0,1-1.912,0v-.956h-.049a2.819,2.819,0,0,1-2.819-2.819.956.956,0,1,1,1.912,0,.908.908,0,0,0,.907.907Zm1.912,0a.956.956,0,0,0,0-1.912ZM10.6,8.69a.956.956,0,0,0,0,1.912Zm.956,12.425a9.558,9.558,0,1,1,9.558-9.558A9.557,9.557,0,0,1,11.558,21.115Zm0-1.912a7.646,7.646,0,1,0-7.646-7.646A7.646,7.646,0,0,0,11.558,19.2Z" transform="translate(-455.782 -38.301)" fill="#fff"/><path d="M24.671,35.841H5.973A5.98,5.98,0,0,1,0,29.867V13.938A5.98,5.98,0,0,1,5.973,7.965H9.956V5.973A5.98,5.98,0,0,1,15.929,0h7.965a5.98,5.98,0,0,1,5.973,5.973V7.965H33.85a5.98,5.98,0,0,1,5.973,5.973v7.845a11.283,11.283,0,0,0-2.983-.791V13.938c0-1.09-1.9-2.992-2.991-2.992H5.973c-1.09,0-2.991,1.9-2.991,2.992V29.867c0,1.09,1.9,2.991,2.991,2.991H24.109a11.317,11.317,0,0,0,.561,2.981ZM15.929,2.983c-1.154,0-2.991.911-2.991,1.991V7.965H26.885V4.973c0-1.08-1.837-1.991-2.991-1.991ZM21.9,27.876H17.92V23.894H13.938V19.912H17.92V15.929H21.9v3.982h3.983v3.983H21.9v3.981Z" transform="translate(-479.667 -59)" fill="#fff"/></g></g></svg>