<svg xmlns="http://www.w3.org/2000/svg" width="338" height="338" viewBox="0 0 338 338">
  <g id="Grupo_26" data-name="Grupo 26" transform="translate(0.111 0.327)">
    <circle id="Elipse_22" data-name="Elipse 22" cx="169" cy="169" r="169" transform="translate(-0.111 -0.327)" fill="#fff"/>
    <g id="Grupo_23" data-name="Grupo 23" transform="translate(45.797 39.366)">
      <path id="Exclusi贸n_2" data-name="Exclusi贸n 2" d="M129.8,258.189a1.858,1.858,0,0,1-.613-.1c-9.9-3.413-5.953-20.115-4.657-25.6a15.38,15.38,0,0,0,.359-1.707A54.262,54.262,0,0,0,139.236,214.7c7.489-12.412,11.032-27.509,10.531-44.873,6.326-7.734,23.986-33.413,21.861-43.345a4.614,4.614,0,0,0-2.468-3.359,4.739,4.739,0,0,0-2.148-.549c-3.341,0-6.161,4.1-10.063,9.765A97.165,97.165,0,0,1,144.407,147.9a55.852,55.852,0,0,1-21.951,13.227,48.752,48.752,0,0,1-15.041,2.525,45.753,45.753,0,0,1-21.534-5.726c-1.445-.746-2.766-1.479-4.043-2.187-3.566-1.978-6.383-3.54-8.666-3.54a4.332,4.332,0,0,0-3.752,2.2A7.558,7.558,0,0,0,68,160.28c1.046,5.382,8.274,10.215,15.926,15.332,2.56,1.712,5.206,3.481,7.659,5.3.284,4.253-1.752,10.3-5.886,17.485a114.513,114.513,0,0,1-15.285,20.327,91.6,91.6,0,0,1-15.368,13.428c-5.435,3.634-10.131,5.476-13.956,5.476a9.139,9.139,0,0,1-4.125-.909c-3.9-1.952-4.594-7.2-2.171-16.506,2.165-8.32,6.561-18.911,11.216-30.123,7.8-18.8,16.651-40.111,16.286-54.694-.59-23.613-11.938-29.257-23.953-35.231a84.791,84.791,0,0,1-12.46-7.12A97.94,97.94,0,0,1,8.6,77.471C3.757,71.731.929,66.3.193,61.319A15.729,15.729,0,0,1,3.321,49.113a4.981,4.981,0,0,1,4.174-2.159c3.366,0,7.925,2.666,14.235,6.357,3.918,2.291,8.358,4.888,13.63,7.521A131.13,131.13,0,0,0,95.312,74.709,180.035,180.035,0,0,0,126.72,71.8c1.174,3.233,5.455,11.418,13.273,19.263a56.768,56.768,0,0,0,35.138,16.968c1.033.1,2.162.146,3.356.146,10.175,0,24.079-3.487,33.952-6.412a196.585,196.585,0,0,0,23.582-8.347,10.357,10.357,0,0,1,4.483-1.049,5.854,5.854,0,0,1,5.353,2.666c1.32,2.257,1.751,6.977-3.689,16.649-9.282,16.5-49.611,33.924-62.863,39.65-2.432,1.051-3.9,1.685-4.175,1.878-.581.407-.733,3.046-.986,7.417-.52,9.013-1.489,25.79-7.756,44.829-3.765,11.436-10.688,24.535-18.995,35.937a93.445,93.445,0,0,1-10.3,12.147C133.915,256.58,131.393,258.188,129.8,258.189ZM116.848,103.6a25.9,25.9,0,1,0,25.9,25.9A25.927,25.927,0,0,0,116.848,103.6Zm56.976-2.074a35.223,35.223,0,1,1,24.906-10.317A34.992,34.992,0,0,1,173.825,101.523ZM90.947,70.445A35.223,35.223,0,0,1,66.042,10.317a35.222,35.222,0,0,1,49.812,49.812A34.992,34.992,0,0,1,90.947,70.445Z" transform="translate(0 0)" fill="#fda400"/>
      <path id="Intersecci贸n_1" data-name="Intersecci贸n 1" d="M85.2,156.036c6.682-10.417,13.408-23.2,12.049-29.548a4.615,4.615,0,0,0-2.467-3.36,4.74,4.74,0,0,0-2.148-.548c-3.342,0-6.161,4.095-10.064,9.764A97.177,97.177,0,0,1,70.033,147.9l-.257.247q-3.093-1.829-6.085-3.81a25.887,25.887,0,0,0-36.9-35.433A141.548,141.548,0,0,1,8.425,74.183q6.148.527,12.514.527A180.006,180.006,0,0,0,52.346,71.8C53.519,75.029,57.8,83.213,65.619,91.06a56.767,56.767,0,0,0,35.139,16.967c1.033.1,2.161.145,3.356.145,10.174,0,24.079-3.487,33.951-6.411a196.506,196.506,0,0,0,23.583-8.348,10.364,10.364,0,0,1,4.483-1.048,5.854,5.854,0,0,1,5.354,2.667c1.32,2.256,1.751,6.978-3.688,16.648-9.283,16.5-49.611,33.925-62.863,39.649-2.432,1.052-3.9,1.686-4.175,1.878-.582.408-.733,3.045-.986,7.418q-.023.4-.047.82A141.016,141.016,0,0,1,85.2,156.036ZM74.544,91.207a35.224,35.224,0,1,1,24.907,10.316A35,35,0,0,1,74.544,91.207ZM6.677,69.043A143.024,143.024,0,0,1,1.8,3.227a35.292,35.292,0,0,1,39.679,7.09A35.222,35.222,0,0,1,16.574,70.445,35.373,35.373,0,0,1,6.677,69.043Z" transform="translate(74.374 0)" fill="#fbc103"/>
    </g>
  </g>
</svg>
