<svg xmlns="http://www.w3.org/2000/svg" width="80" height="80" viewBox="0 0 80 80"><g transform="translate(411 83)"><g transform="translate(-411 -83)" fill="none" stroke="#fff" stroke-width="3"><circle cx="40" cy="40" r="40" stroke="none"/><circle cx="40" cy="40" r="38.5" fill="none"/></g><g transform="translate(-2 -2)"><path d="M20.649,37H7.086A5.049,5.049,0,0,1,2,32V29.1a9.149,9.149,0,0,1,1.64-5.231A9.4,9.4,0,0,1,7.99,20.451a1.72,1.72,0,0,1,1.709.218,1.655,1.655,0,0,1,.632,1.576,1.677,1.677,0,0,1-1.1,1.306A5.932,5.932,0,0,0,5.391,29.1V32a1.682,1.682,0,0,0,1.695,1.666H20.649A1.682,1.682,0,0,0,22.343,32V29.255a6.134,6.134,0,0,0-4-5.7,1.675,1.675,0,0,1-1.114-1.294,1.65,1.65,0,0,1,.615-1.584,1.718,1.718,0,0,1,1.708-.235,9.644,9.644,0,0,1,3.629,2.411,9.455,9.455,0,0,1,2.141,3.682,6.229,6.229,0,0,0,.268,6.631A5.051,5.051,0,0,1,20.649,37ZM34.926,24.715h0a6.5,6.5,0,0,0-4.011-1.384h-.03a5.777,5.777,0,0,0-2.3-1.415,1.675,1.675,0,0,1-.986-.846,1.63,1.63,0,0,1-.087-1.262,1.69,1.69,0,0,1,1.608-1.141,1.719,1.719,0,0,1,.536.086,9.2,9.2,0,0,1,3.561,2.16,9.02,9.02,0,0,1,2.184,3.424c-.163.117-.324.244-.478.379ZM13.867,20.334a6.733,6.733,0,0,1-6.781-6.667V10.333a6.782,6.782,0,0,1,13.563,0v3.334A6.733,6.733,0,0,1,13.867,20.334ZM13.867,7a3.366,3.366,0,0,0-3.39,3.333v3.334a3.391,3.391,0,0,0,6.781,0V10.333A3.366,3.366,0,0,0,13.867,7ZM24.039,18.667a1.667,1.667,0,1,1,0-3.334A3.366,3.366,0,0,0,27.429,12V8.667a3.366,3.366,0,0,0-3.39-3.334,1.667,1.667,0,1,1,0-3.334,6.733,6.733,0,0,1,6.781,6.667V12A6.733,6.733,0,0,1,24.039,18.667Z" transform="translate(-392 -62.5)" fill="#fff"/><path d="M5.636,11.208,12,17.572l6.364-6.364a3,3,0,1,0-4.243-4.243L12,9.086,9.879,6.966a3,3,0,1,0-4.243,4.242ZM11.293,5.55,12,6.257l.707-.707a5,5,0,1,1,7.071,7.071l-7.07,7.071a1,1,0,0,1-1.415,0l-7.071-7.07a5,5,0,1,1,7.07-7.071Z" transform="translate(-369 -42)" fill="#fff"/></g></g></svg>