<svg xmlns="http://www.w3.org/2000/svg" width="600" height="249.368" viewBox="0 0 600 249.368">
  <g id="Grupo_11" data-name="Grupo 11" transform="translate(-2130.104 -729)">
    <rect id="Rectángulo_135" data-name="Rectángulo 135" width="549.844" height="153.796" transform="translate(2180.26 819.468)" fill="#2d3d4e"/>
    <text id="yTodoSeguros" transform="translate(2297.868 932.796)" fill="#fff" font-size="56" font-family="Arial-BoldMT, Arial" font-weight="700" letter-spacing="0.02em"><tspan x="0" y="0">yTodoSeguros</tspan></text>
    <g id="Grupo_9" data-name="Grupo 9" transform="translate(2130.104 729)">
      <path id="Exclusión_2" data-name="Exclusión 2" d="M125.364,249.368a1.794,1.794,0,0,1-.593-.092c-9.558-3.3-5.75-19.428-4.5-24.728a14.854,14.854,0,0,0,.347-1.649,52.408,52.408,0,0,0,13.858-15.53c7.233-11.988,10.655-26.57,10.171-43.339,6.11-7.469,23.166-32.271,21.114-41.864a4.456,4.456,0,0,0-2.383-3.244,4.577,4.577,0,0,0-2.075-.53c-3.227,0-5.95,3.956-9.719,9.431a93.844,93.844,0,0,1-12.113,15.021,53.943,53.943,0,0,1-21.2,12.776,47.086,47.086,0,0,1-14.527,2.439,44.19,44.19,0,0,1-20.8-5.531c-1.4-.721-2.672-1.428-3.905-2.113-3.445-1.91-6.165-3.419-8.37-3.419a4.184,4.184,0,0,0-3.624,2.126,7.3,7.3,0,0,0-1.372,5.684c1.011,5.2,7.991,9.866,15.382,14.808,2.472,1.653,5.028,3.363,7.4,5.12.274,4.107-1.692,9.946-5.685,16.887a110.6,110.6,0,0,1-14.763,19.633,88.468,88.468,0,0,1-14.843,12.969c-5.249,3.51-9.785,5.289-13.479,5.289a8.827,8.827,0,0,1-3.984-.878c-3.77-1.885-4.437-6.951-2.1-15.942,2.091-8.036,6.337-18.265,10.832-29.094,7.538-18.159,16.082-38.741,15.73-52.826-.569-22.807-11.53-28.257-23.134-34.028A81.894,81.894,0,0,1,25,89.867,94.593,94.593,0,0,1,8.3,74.824C3.628,69.28.9,64.031.186,59.224A15.192,15.192,0,0,1,3.207,47.435,4.811,4.811,0,0,1,7.239,45.35c3.251,0,7.654,2.575,13.749,6.139,3.784,2.213,8.072,4.721,13.164,7.264a126.65,126.65,0,0,0,57.9,13.4,173.884,173.884,0,0,0,30.335-2.814c1.133,3.123,5.268,11.028,12.82,18.605a54.828,54.828,0,0,0,33.938,16.389c1,.093,2.088.141,3.241.141,9.827,0,23.257-3.368,32.792-6.193a189.867,189.867,0,0,0,22.776-8.062,10,10,0,0,1,4.33-1.013,5.654,5.654,0,0,1,5.171,2.575c1.275,2.18,1.691,6.739-3.563,16.08-8.965,15.939-47.916,32.765-60.715,38.295-2.349,1.015-3.766,1.627-4.033,1.814-.561.393-.708,2.941-.952,7.163-.5,8.705-1.438,24.909-7.491,43.3-3.636,11.046-10.323,23.7-18.346,34.71a90.252,90.252,0,0,1-9.951,11.732C129.34,247.814,126.9,249.367,125.364,249.368ZM112.856,100.057a25.013,25.013,0,1,0,25.014,25.012A25.042,25.042,0,0,0,112.856,100.057Zm55.03-2a34.019,34.019,0,1,1,24.055-9.964A33.8,33.8,0,0,1,167.886,98.054ZM87.84,68.039A34.02,34.02,0,0,1,63.786,9.964a34.019,34.019,0,0,1,48.11,48.11A33.8,33.8,0,0,1,87.84,68.039Z" transform="translate(0 0)" fill="#fda400"/>
      <path id="Intersección_1" data-name="Intersección 1" d="M82.292,150.7c6.454-10.061,12.95-22.407,11.638-28.539a4.458,4.458,0,0,0-2.383-3.245,4.578,4.578,0,0,0-2.075-.53c-3.227,0-5.951,3.955-9.72,9.43a93.856,93.856,0,0,1-12.112,15.022l-.249.238q-2.987-1.767-5.878-3.68a25,25,0,0,0-35.642-34.223A136.712,136.712,0,0,1,8.137,71.649q5.938.509,12.086.508a173.855,173.855,0,0,0,30.334-2.815c1.133,3.123,5.268,11.028,12.82,18.606a54.827,54.827,0,0,0,33.938,16.387c1,.094,2.087.14,3.242.14,9.826,0,23.256-3.368,32.791-6.192a189.793,189.793,0,0,0,22.777-8.063,10.01,10.01,0,0,1,4.33-1.012,5.654,5.654,0,0,1,5.171,2.575c1.275,2.179,1.691,6.739-3.562,16.079-8.965,15.939-47.916,32.766-60.716,38.295-2.349,1.016-3.766,1.628-4.032,1.814-.562.394-.708,2.941-.953,7.164q-.022.386-.046.792A136.193,136.193,0,0,1,82.292,150.7ZM72,88.091a34.021,34.021,0,1,1,24.056,9.963A33.8,33.8,0,0,1,72,88.091ZM6.449,66.684A138.137,138.137,0,0,1,1.74,3.117,34.086,34.086,0,0,1,40.063,9.965,34.018,34.018,0,0,1,16.007,68.039,34.165,34.165,0,0,1,6.449,66.684Z" transform="translate(71.833 0)" fill="#fbc103"/>
    </g>
  </g>
</svg>
