<svg xmlns="http://www.w3.org/2000/svg" width="882.953" height="197" viewBox="0 0 882.953 197">
  <g id="isotipo-2-brand" transform="translate(-4285.047 -1544.157)">
    <text id="yTodoSeguros" transform="translate(4503 1675)" fill="#fff" font-size="93" font-family="Arial-BoldMT, Arial" font-weight="700" letter-spacing="0.02em"><tspan x="0" y="0">yTodoSeguros</tspan></text>
    <g id="Grupo_33" data-name="Grupo 33" transform="translate(4291.851 1551.252)">
      <path id="Exclusión_2" data-name="Exclusión 2" d="M98.535,196a1.41,1.41,0,0,1-.466-.072c-7.512-2.591-4.519-15.27-3.536-19.436a11.67,11.67,0,0,0,.273-1.3A41.192,41.192,0,0,0,105.7,162.989c5.685-9.423,8.375-20.883,7.994-34.064,4.8-5.871,18.209-25.365,16.6-32.9a3.5,3.5,0,0,0-1.873-2.55,3.6,3.6,0,0,0-1.631-.417c-2.536,0-4.677,3.109-7.639,7.413a73.761,73.761,0,0,1-9.52,11.806A42.4,42.4,0,0,1,92.96,122.314a37.009,37.009,0,0,1-11.418,1.917A34.733,34.733,0,0,1,65.2,119.883c-1.1-.567-2.1-1.123-3.069-1.66-2.707-1.5-4.846-2.688-6.579-2.688a3.289,3.289,0,0,0-2.848,1.671,5.737,5.737,0,0,0-1.079,4.468c.794,4.085,6.281,7.754,12.09,11.639,1.943,1.3,3.952,2.643,5.814,4.024.215,3.228-1.33,7.818-4.468,13.273a86.932,86.932,0,0,1-11.6,15.431,69.536,69.536,0,0,1-11.666,10.194c-4.126,2.758-7.691,4.157-10.595,4.157a6.938,6.938,0,0,1-3.131-.69c-2.963-1.482-3.487-5.463-1.648-12.53,1.643-6.316,4.981-14.356,8.514-22.867,5.925-14.273,12.64-30.45,12.363-41.52-.448-17.926-9.063-22.21-18.183-26.745a64.365,64.365,0,0,1-9.458-5.405A74.349,74.349,0,0,1,6.526,58.811C2.852,54.453.705,50.328.146,46.549a11.941,11.941,0,0,1,2.375-9.266A3.781,3.781,0,0,1,5.69,35.644c2.555,0,6.016,2.024,10.806,4.826,2.975,1.74,6.345,3.71,10.347,5.709A99.546,99.546,0,0,0,72.355,56.714,136.671,136.671,0,0,0,96.2,54.5a46.106,46.106,0,0,0,10.076,14.623,43.1,43.1,0,0,0,26.675,12.881c.784.073,1.642.111,2.548.111,7.724,0,18.279-2.647,25.774-4.868a149.231,149.231,0,0,0,17.9-6.337,7.862,7.862,0,0,1,3.4-.8,4.444,4.444,0,0,1,4.064,2.024c1,1.713,1.329,5.3-2.8,12.639-7.047,12.527-37.661,25.753-47.721,30.1-1.846.8-2.96,1.279-3.17,1.425-.441.309-.557,2.312-.748,5.63a128.821,128.821,0,0,1-5.888,34.031,104.12,104.12,0,0,1-14.42,27.281,70.939,70.939,0,0,1-7.821,9.221C101.659,194.778,99.745,196,98.535,196ZM88.7,78.643A19.66,19.66,0,1,0,108.364,98.3,19.682,19.682,0,0,0,88.7,78.643Zm43.253-1.574a26.739,26.739,0,1,1,18.907-7.832A26.564,26.564,0,0,1,131.956,77.069ZM69.041,53.477A26.739,26.739,0,0,1,50.135,7.832,26.739,26.739,0,0,1,87.949,45.646,26.564,26.564,0,0,1,69.041,53.477Z" transform="translate(-6.302 -6.594)" fill="#fff" stroke="#fff" stroke-width="1"/>
    </g>
  </g>
</svg>
