<svg xmlns="http://www.w3.org/2000/svg" width="80" height="80" viewBox="0 0 80 80"><g transform="translate(322 83)"><g transform="translate(-322 -83)" fill="none" stroke="#fff" stroke-width="3"><circle cx="40" cy="40" r="40" stroke="none"/><circle cx="40" cy="40" r="38.5" fill="none"/></g><g transform="translate(0 -1)"><path d="M22.118,28.4h0l-1.3-1.887v-4.44c.069-.083.138-.171.2-.261l1.5,2.167.319-.317-1.16-3.091a4.989,4.989,0,0,0,.3-1.7v-2.66a5.985,5.985,0,0,0-2.737-5.036l5.9-5.9a1.423,1.423,0,0,0-2.011-2.011l-6.69,6.687L4.739,5.561l-.32.318,6.252,4.327h-5L0,6.277,4.022,2.256l11.7,4.386L21.113,1.25a4.266,4.266,0,1,1,6.033,6.033l-5.393,5.392,4.387,11.7L22.119,28.4Z" transform="translate(-287.72 -62.74)" fill="#fff"/><path d="M8.158,23.954h0A3.38,3.38,0,0,1,5.921,21.9L.226,7.067a3.41,3.41,0,0,1,1.959-4.4L8.543.227a3.4,3.4,0,0,1,4.4,1.959L14.75,6.9h-2.1c-.108,0-.218,0-.325.009L10.823,3a1.135,1.135,0,0,0-1.467-.653L3,4.787a1.137,1.137,0,0,0-.653,1.466l5.7,14.836a1.138,1.138,0,0,0,.117.226v2.638Z" transform="translate(-304.604 -59.429)" fill="#fff"/><path d="M10.455,4.818H6.227A1.409,1.409,0,0,0,4.818,6.227V9.046a1.409,1.409,0,0,0,1.409,1.409H9.046a1.409,1.409,0,0,0,1.409-1.409ZM6.242,13.273V27.315h2.8v-7A2.818,2.818,0,0,1,11.864,17.5h2.818A2.818,2.818,0,0,1,17.5,20.319v7h8.473V13.273H23.137A4.211,4.211,0,0,1,20.319,12.2,4.212,4.212,0,0,1,17.5,13.273H14.682A4.211,4.211,0,0,1,11.864,12.2a4.212,4.212,0,0,1-2.818,1.077ZM3.423,12.211A4.218,4.218,0,0,1,2,9.046V6.227A4.227,4.227,0,0,1,6.227,2H25.956a4.227,4.227,0,0,1,4.227,4.227V9.046a4.215,4.215,0,0,1-1.391,3.135V27.315a2.818,2.818,0,0,1-2.818,2.818H15.208a2.832,2.832,0,0,1-.526.049H11.864a2.831,2.831,0,0,1-.525-.049h-5.1a2.818,2.818,0,0,1-2.818-2.818V12.209ZM14.682,27.317v-7H11.864v7h2.818Zm4.227-22.5H13.273V9.046a1.409,1.409,0,0,0,1.409,1.409H17.5A1.409,1.409,0,0,0,18.91,9.046Zm2.818,0V9.046a1.409,1.409,0,0,0,1.409,1.409h2.818a1.409,1.409,0,0,0,1.409-1.409V6.227a1.409,1.409,0,0,0-1.409-1.409Zm0,12.682h1.409a1.409,1.409,0,0,1,1.409,1.409v4.227a1.409,1.409,0,0,1-1.409,1.409H21.728a1.409,1.409,0,0,1-1.409-1.409V18.91A1.409,1.409,0,0,1,21.728,17.5Z" transform="translate(-297.944 -52.923)" fill="#fff"/></g></g></svg>